<?xml version="1.0" encoding="UTF-8" standalone="no"?>
<!-- Generator: Adobe Illustrator 20.0.0, SVG Export Plug-In . SVG Version: 6.00 Build 0)  -->

<svg
   xmlns:dc="http://purl.org/dc/elements/1.1/"
   xmlns:cc="http://creativecommons.org/ns#"
   xmlns:rdf="http://www.w3.org/1999/02/22-rdf-syntax-ns#"
   xmlns:svg="http://www.w3.org/2000/svg"
   xmlns="http://www.w3.org/2000/svg"
   xmlns:sodipodi="http://sodipodi.sourceforge.net/DTD/sodipodi-0.dtd"
   xmlns:inkscape="http://www.inkscape.org/namespaces/inkscape"
   version="1.1"
   id="Layer_1"
   x="0px"
   y="0px"
   viewBox="0 0 30 30"
   style="enable-background:new 0 0 30 30;"
   xml:space="preserve"
   sodipodi:docname="marker-orange.svg"
   inkscape:version="0.92.4 (33fec40, 2019-01-16)"><metadata
   id="metadata22"><rdf:RDF><cc:Work
       rdf:about=""><dc:format>image/svg+xml</dc:format><dc:type
         rdf:resource="http://purl.org/dc/dcmitype/StillImage" /><dc:title></dc:title></cc:Work></rdf:RDF></metadata><defs
   id="defs20" /><sodipodi:namedview
   pagecolor="#ffffff"
   bordercolor="#666666"
   borderopacity="1"
   objecttolerance="10"
   gridtolerance="10"
   guidetolerance="10"
   inkscape:pageopacity="0"
   inkscape:pageshadow="2"
   inkscape:window-width="2426"
   inkscape:window-height="1329"
   id="namedview18"
   showgrid="false"
   inkscape:zoom="7.8666667"
   inkscape:cx="-14.618644"
   inkscape:cy="15"
   inkscape:window-x="134"
   inkscape:window-y="55"
   inkscape:window-maximized="1"
   inkscape:current-layer="Layer_1" />
<g
   id="XMLID_2_"
   style="fill:#ff7f2a;fill-opacity:1">
	<g
   id="g4"
   style="fill:#ff7f2a;fill-opacity:1">
		<path
   style="fill:#ff7f2a;fill-opacity:1"
   d="M15,28.9c-1.6-3-8-9.4-9.9-13.5c-0.6-1.3-1-2.7-1-4.2C4.2,5.7,9.1,1.1,15,1.1s10.9,4.6,10.9,10.1    c0,1.5-0.4,2.9-1,4.2l0,0C23,19.5,16.6,25.9,15,28.9L15,28.9z"
   id="path2" />
	</g>
	<g
   id="g14"
   style="fill:#ff7f2a;fill-opacity:1">
		<path
   style="fill:#ff7f2a;stroke:#87C2DE;stroke-width:2;stroke-linecap:round;stroke-miterlimit:10;fill-opacity:1"
   d="M5.1,15.4    c-0.6-1.3-1-2.7-1-4.2C4.2,5.7,9.1,1.1,15,1.1s10.9,4.6,10.9,10.1c0,1.5-0.4,2.9-1,4.2"
   id="path6" />
		
			<line
   style="fill:#ff7f2a;stroke:#87C2DE;stroke-width:2;stroke-linecap:round;stroke-miterlimit:10;fill-opacity:1"
   x1="15.1"
   y1="28.9"
   x2="15.1"
   y2="28.9"
   id="line8" />
		<path
   style="fill:#ff7f2a;stroke:#87C2DE;stroke-width:2;stroke-linecap:round;stroke-miterlimit:10;fill-opacity:1"
   d="M5.1,15.4    c1.9,4.1,8.3,10.5,9.9,13.5"
   id="path10" />
		<path
   style="fill:#ff7f2a;stroke:#87C2DE;stroke-width:2;stroke-linecap:round;stroke-miterlimit:10;fill-opacity:1"
   d="M24.9,15.4    c-1.9,4.1-8.3,10.5-9.9,13.5h0v0"
   id="path12" />
	</g>
</g>
<path
   style="opacity:1;fill:#ffccaa;fill-opacity:1;stroke:#000742;stroke-width:0;stroke-miterlimit:4;stroke-dasharray:none;stroke-opacity:0.0262295"
   d="M 14.5066,29.748058 C 14.424,29.695528 14.058434,29.195877 13.694228,28.637717 12.956997,27.507882 13.072567,27.65691 9.9990985,23.872881 4.9984247,17.716096 3.7491399,15.651253 3.2814799,12.769874 2.4137725,7.4236944 6.2558042,2.0244013 11.987288,0.53540617 c 2.141703,-0.55639771 4.604007,-0.4738829 6.800848,0.22790463 1.881617,0.6010887 3.594943,1.6728136 4.965425,3.1059899 2.045943,2.1395365 3.043049,4.5168157 3.043049,7.2551773 0,3.732858 -1.108079,5.784889 -7.055635,13.0662 -2.525336,3.09165 -3.279913,4.094733 -3.693568,4.909984 -0.164079,0.323372 -0.391462,0.62369 -0.505296,0.667373 -0.281091,0.107864 -0.851798,0.09685 -1.035511,-0.01998 z m 1.310522,-3.71416 c 0.407407,-0.524364 1.719372,-2.154661 2.915477,-3.622881 3.581931,-4.396824 4.772295,-6.11687 5.512484,-7.965406 0.558121,-1.39384 0.679645,-2.116407 0.613595,-3.64836 C 24.756948,8.4377744 24.040381,6.8793639 22.220339,5.059322 19.996944,2.8359262 16.958839,1.7612256 13.912494,2.1205009 11.437723,2.4123669 9.6394341,3.2828151 7.8410832,5.059322 6.7863999,6.1011944 6.5373836,6.4327039 6.0268429,7.4745763 5.0521973,9.4635586 4.829657,11.239255 5.3164691,13.142802 c 0.5993642,2.343651 1.8423931,4.25297 6.3709679,9.785948 1.148638,1.403397 2.34384,2.903185 2.656006,3.332862 0.312166,0.429678 0.604781,0.768732 0.650256,0.753454 0.04548,-0.01528 0.416016,-0.456803 0.823423,-0.981168 z"
   id="path839"
   inkscape:connector-curvature="0" /></svg>