<?xml version="1.0" encoding="UTF-8" standalone="no"?>
<!-- Generator: Adobe Illustrator 20.0.0, SVG Export Plug-In . SVG Version: 6.00 Build 0)  -->

<svg
   xmlns:dc="http://purl.org/dc/elements/1.1/"
   xmlns:cc="http://creativecommons.org/ns#"
   xmlns:rdf="http://www.w3.org/1999/02/22-rdf-syntax-ns#"
   xmlns:svg="http://www.w3.org/2000/svg"
   xmlns="http://www.w3.org/2000/svg"
   xmlns:sodipodi="http://sodipodi.sourceforge.net/DTD/sodipodi-0.dtd"
   xmlns:inkscape="http://www.inkscape.org/namespaces/inkscape"
   version="1.1"
   id="Layer_1"
   x="0px"
   y="0px"
   viewBox="0 0 30 30"
   style="enable-background:new 0 0 30 30;"
   xml:space="preserve"
   sodipodi:docname="marker-green.svg"
   inkscape:version="0.92.4 (33fec40, 2019-01-16)"><metadata
   id="metadata22"><rdf:RDF><cc:Work
       rdf:about=""><dc:format>image/svg+xml</dc:format><dc:type
         rdf:resource="http://purl.org/dc/dcmitype/StillImage" /><dc:title></dc:title></cc:Work></rdf:RDF></metadata><defs
   id="defs20" /><sodipodi:namedview
   pagecolor="#ffffff"
   bordercolor="#666666"
   borderopacity="1"
   objecttolerance="10"
   gridtolerance="10"
   guidetolerance="10"
   inkscape:pageopacity="0"
   inkscape:pageshadow="2"
   inkscape:window-width="2426"
   inkscape:window-height="1329"
   id="namedview18"
   showgrid="false"
   inkscape:zoom="7.8666667"
   inkscape:cx="-44.237288"
   inkscape:cy="15"
   inkscape:window-x="134"
   inkscape:window-y="55"
   inkscape:window-maximized="1"
   inkscape:current-layer="Layer_1" />
<g
   id="XMLID_2_"
   style="fill:#ff7f2a;fill-opacity:1">
	<g
   id="g4"
   style="fill:#ff7f2a;fill-opacity:1">
		<path
   style="fill:#ff7f2a;fill-opacity:1"
   d="M15,28.9c-1.6-3-8-9.4-9.9-13.5c-0.6-1.3-1-2.7-1-4.2C4.2,5.7,9.1,1.1,15,1.1s10.9,4.6,10.9,10.1    c0,1.5-0.4,2.9-1,4.2l0,0C23,19.5,16.6,25.9,15,28.9L15,28.9z"
   id="path2" />
	</g>
	<g
   id="g14"
   style="fill:#ff7f2a;fill-opacity:1">
		<path
   style="fill:#ff7f2a;stroke:#87C2DE;stroke-width:2;stroke-linecap:round;stroke-miterlimit:10;fill-opacity:1"
   d="M5.1,15.4    c-0.6-1.3-1-2.7-1-4.2C4.2,5.7,9.1,1.1,15,1.1s10.9,4.6,10.9,10.1c0,1.5-0.4,2.9-1,4.2"
   id="path6" />
		
			<line
   style="fill:#ff7f2a;stroke:#87C2DE;stroke-width:2;stroke-linecap:round;stroke-miterlimit:10;fill-opacity:1"
   x1="15.1"
   y1="28.9"
   x2="15.1"
   y2="28.9"
   id="line8" />
		<path
   style="fill:#ff7f2a;stroke:#87C2DE;stroke-width:2;stroke-linecap:round;stroke-miterlimit:10;fill-opacity:1"
   d="M5.1,15.4    c1.9,4.1,8.3,10.5,9.9,13.5"
   id="path10" />
		<path
   style="fill:#ff7f2a;stroke:#87C2DE;stroke-width:2;stroke-linecap:round;stroke-miterlimit:10;fill-opacity:1"
   d="M24.9,15.4    c-1.9,4.1-8.3,10.5-9.9,13.5h0v0"
   id="path12" />
	</g>
</g>
<path
   style="opacity:1;fill:#ffccaa;fill-opacity:1;stroke:#000742;stroke-width:0;stroke-miterlimit:4;stroke-dasharray:none;stroke-opacity:0.0262295"
   d="M 14.5066,29.748058 C 14.424,29.695528 14.058434,29.195877 13.694228,28.637717 12.956997,27.507882 13.072567,27.65691 9.9990985,23.872881 4.9984247,17.716096 3.7491399,15.651253 3.2814799,12.769874 2.4137725,7.4236944 6.2558042,2.0244013 11.987288,0.53540617 c 2.141703,-0.55639771 4.604007,-0.4738829 6.800848,0.22790463 1.881617,0.6010887 3.594943,1.6728136 4.965425,3.1059899 2.045943,2.1395365 3.043049,4.5168157 3.043049,7.2551773 0,3.732858 -1.108079,5.784889 -7.055635,13.0662 -2.525336,3.09165 -3.279913,4.094733 -3.693568,4.909984 -0.164079,0.323372 -0.391462,0.62369 -0.505296,0.667373 -0.281091,0.107864 -0.851798,0.09685 -1.035511,-0.01998 z m 1.310522,-3.71416 c 0.407407,-0.524364 1.719372,-2.154661 2.915477,-3.622881 3.581931,-4.396824 4.772295,-6.11687 5.512484,-7.965406 0.558121,-1.39384 0.679645,-2.116407 0.613595,-3.64836 C 24.756948,8.4377744 24.040381,6.8793639 22.220339,5.059322 19.996944,2.8359262 16.958839,1.7612256 13.912494,2.1205009 11.437723,2.4123669 9.6394341,3.2828151 7.8410832,5.059322 6.7863999,6.1011944 6.5373836,6.4327039 6.0268429,7.4745763 5.0521973,9.4635586 4.829657,11.239255 5.3164691,13.142802 c 0.5993642,2.343651 1.8423931,4.25297 6.3709679,9.785948 1.148638,1.403397 2.34384,2.903185 2.656006,3.332862 0.312166,0.429678 0.604781,0.768732 0.650256,0.753454 0.04548,-0.01528 0.416016,-0.456803 0.823423,-0.981168 z"
   id="path839"
   inkscape:connector-curvature="0" /><path
   style="opacity:1;fill:#88aa00;fill-opacity:1;stroke:#000742;stroke-width:0;stroke-miterlimit:4;stroke-dasharray:none;stroke-opacity:0.0262295"
   d="M 13.676039,25.227253 C 12.9409,24.307561 11.439148,22.439619 10.338814,21.076271 6.4120498,16.21089 5.1864407,13.892315 5.1864407,11.329144 c 0,-4.7228349 4.037513,-8.7617434 9.1382763,-9.1414344 3.953141,-0.2942644 7.928175,1.9176039 9.615453,5.3504259 0.602798,1.2264108 0.826366,2.2033775 0.832607,3.6384045 0.01335,3.07035 -1.041751,4.962997 -6.440118,11.552273 -0.887827,1.083687 -1.998029,2.4654 -2.467116,3.070474 l -0.852886,1.100134 z"
   id="path820"
   inkscape:connector-curvature="0" /><path
   style="opacity:1;fill:#dde9af;fill-opacity:1;stroke:#000742;stroke-width:0;stroke-miterlimit:4;stroke-dasharray:none;stroke-opacity:0.0262295"
   d="M 14.648189,29.727693 C 14.503633,29.667675 14.132468,29.226742 13.823376,28.747844 13.514285,28.268945 12.11385,26.447034 10.711298,24.699152 5.305268,17.962075 4.1550893,16.202705 3.5202929,13.699433 3.2017134,12.443138 3.1478669,10.501636 3.3987705,9.3177965 4.2627093,5.2414712 7.4099368,1.9718539 11.733051,0.65941185 12.769167,0.3448604 13.069033,0.31153237 14.911017,0.3062041 c 2.383942,-0.006896 3.440705,0.21548553 5.338983,1.123517 1.361652,0.6513389 2.119405,1.1832155 3.217524,2.2584205 2.240297,2.1935477 3.22373,4.4650252 3.235372,7.4728754 0.01459,3.77032 -0.870357,5.400283 -7.212186,13.283898 -1.40605,1.747882 -2.782871,3.53976 -3.059599,3.981954 -0.27673,0.442192 -0.58895,0.911681 -0.693823,1.043308 -0.229921,0.288576 -0.729682,0.406743 -1.089099,0.257516 z m 3.77628,-6.872921 c 4.49466,-5.598581 5.699581,-7.452607 6.277884,-9.659857 C 25.002365,12.049842 24.905415,9.6613367 24.511442,8.4915254 23.993131,6.9525182 22.925174,5.5265141 21.352679,4.2737435 18.559149,2.0482005 15.11424,1.4573826 11.635333,2.6071735 9.4909498,3.3158998 7.0619901,5.3827066 6.083797,7.3309872 5.1093545,9.2717974 4.8269017,11.228662 5.2557488,13.067797 c 0.2838546,1.217326 1.2915929,3.179248 2.4938447,4.85516 1.3840604,1.929348 7.1325015,9.126718 7.2602455,9.090234 0.05435,-0.01552 1.590936,-1.886812 3.41463,-4.158419 z"
   id="path822"
   inkscape:connector-curvature="0" /></svg>