<?xml version="1.0" encoding="UTF-8" standalone="no"?>
<svg
   xmlns:dc="http://purl.org/dc/elements/1.1/"
   xmlns:cc="http://creativecommons.org/ns#"
   xmlns:rdf="http://www.w3.org/1999/02/22-rdf-syntax-ns#"
   xmlns:svg="http://www.w3.org/2000/svg"
   xmlns="http://www.w3.org/2000/svg"
   xmlns:sodipodi="http://sodipodi.sourceforge.net/DTD/sodipodi-0.dtd"
   xmlns:inkscape="http://www.inkscape.org/namespaces/inkscape"
   version="1.1"
   id="bus-15"
   width="15px"
   height="15px"
   viewBox="0 0 15 15"
   sodipodi:docname="bus-15-onando.svg"
   inkscape:version="0.92.4 (33fec40, 2019-01-16)">
  <metadata
     id="metadata8">
    <rdf:RDF>
      <cc:Work
         rdf:about="">
        <dc:format>image/svg+xml</dc:format>
        <dc:type
           rdf:resource="http://purl.org/dc/dcmitype/StillImage" />
        <dc:title></dc:title>
      </cc:Work>
    </rdf:RDF>
  </metadata>
  <defs
     id="defs6" />
  <sodipodi:namedview
     pagecolor="#ffffff"
     bordercolor="#666666"
     borderopacity="1"
     objecttolerance="10"
     gridtolerance="10"
     guidetolerance="10"
     inkscape:pageopacity="0"
     inkscape:pageshadow="2"
     inkscape:window-width="2426"
     inkscape:window-height="1329"
     id="namedview4"
     showgrid="false"
     inkscape:zoom="44.500587"
     inkscape:cx="11.266139"
     inkscape:cy="6.4664858"
     inkscape:window-x="134"
     inkscape:window-y="55"
     inkscape:window-maximized="1"
     inkscape:current-layer="bus-15" />
  <path
     id="path8043"
     d="M4,0C2.6364,0,1,0.7433,1,2.7461v5.4531V12c0,0,0,1,1,1v1c0,0,0,1,1,1s1-1,1-1v-1h7v1c0,0,0,1,1,1s1-1,1-1v-1
	c0,0,1,0,1-1V2.7461C14,0.7006,12.764,0,11.4004,0H4z M4.25,1.5h6.5C10.8885,1.5,11,1.6115,11,1.75S10.8885,2,10.75,2h-6.5
	C4.1115,2,4,1.8885,4,1.75S4.1115,1.5,4.25,1.5z M3,3h9c1,0,1,0.9668,1,0.9668V7c0,0,0,1-1,1H3C2,8,2,7,2,7V4C2,4,2,3,3,3z M3,10
	c0.5523,0,1,0.4477,1,1s-0.4477,1-1,1s-1-0.4477-1-1S2.4477,10,3,10z M12,10c0.5523,0,1,0.4477,1,1s-0.4477,1-1,1s-1-0.4477-1-1
	S11.4477,10,12,10z" />
  <path
     style="opacity:1;fill:#0c4842;fill-opacity:0.98360658;stroke:#000742;stroke-width:0;stroke-miterlimit:4;stroke-dasharray:none;stroke-opacity:0.0262295"
     d="m 2.6392977,14.931701 c -0.3234768,-0.102509 -0.548569,-0.394423 -0.613798,-0.796013 -0.012045,-0.07416 -0.021959,-0.363524 -0.02203,-0.64304 l -1.302e-4,-0.50821 -0.1550755,-0.0111 C 1.5495049,12.951967 1.2783522,12.771371 1.1442724,12.504462 1.0048085,12.226836 1.0131165,12.584623 1.0208651,7.1898731 1.0274225,2.6244726 1.0307155,2.2593621 1.0666498,2.1133742 1.2010356,1.5674153 1.4026229,1.1928691 1.7439483,0.8549638 2.1970997,0.40635302 2.8138263,0.13060721 3.575763,0.03593761 c 0.2601941,-0.03232877 7.982796,-0.03278969 8.248261,-4.9229e-4 0.569259,0.06925794 1.04857,0.27644654 1.397926,0.60427274 0.367478,0.34483028 0.584943,0.76444924 0.706952,1.36412954 0.0384,0.1887496 0.04057,0.4692466 0.04057,5.2454535 v 5.0460399 l -0.0849,0.171778 c -0.09129,0.184721 -0.201204,0.297968 -0.375772,0.387177 -0.135569,0.06928 -0.325985,0.124103 -0.43104,0.124103 h -0.08581 v 0.535192 c 0,0.294356 -0.01105,0.594949 -0.02455,0.667987 -0.0589,0.318601 -0.249017,0.583287 -0.511938,0.712722 -0.144726,0.07125 -0.154578,0.07284 -0.451792,0.07284 -0.282816,0 -0.312757,-0.0042 -0.432724,-0.0604 -0.180198,-0.08445 -0.27237,-0.160332 -0.365871,-0.301197 -0.163641,-0.246535 -0.175292,-0.307951 -0.189309,-0.997931 l -0.01256,-0.61797 H 7.497649 3.9920773 l -0.011995,0.629205 c -0.011193,0.587095 -0.015431,0.637837 -0.063321,0.758175 -0.1135764,0.285393 -0.3072577,0.47732 -0.5618739,0.556786 -0.1930954,0.06026 -0.5218351,0.0593 -0.7155893,-0.0021 z m 0.5980338,-2.954216 c 0.079265,-0.01868 0.1930145,-0.06058 0.2527762,-0.09311 0.1552624,-0.0845 0.344486,-0.292576 0.429722,-0.472526 0.068377,-0.144356 0.072248,-0.166435 0.072248,-0.412117 0,-0.253868 -0.00182,-0.263282 -0.082819,-0.427161 C 3.7700941,10.290991 3.5401365,10.099763 3.2497284,10.024122 2.7931119,9.9051883 2.2983651,10.13287 2.0971142,10.554554 1.7278247,11.32833 2.4051807,12.173635 3.2373315,11.977485 Z m 8.9974845,0.0011 c 0.513629,-0.133784 0.844976,-0.623352 0.761765,-1.125516 -0.09902,-0.597544 -0.674614,-0.9783445 -1.252694,-0.82875 -0.432895,0.112024 -0.751902,0.526347 -0.751902,0.976563 0,0.646375 0.625555,1.138483 1.242831,0.977703 z m -0.006,-3.9890709 C 12.619949,7.915355 12.891776,7.635047 12.980477,7.2144303 13.02881,6.9852396 13.029622,3.9864789 12.981412,3.7589745 12.914217,3.4418692 12.6961,3.165736 12.435711,3.0681247 12.364686,3.0414997 12.22062,3.0106286 12.115566,2.9995227 11.860528,2.9725608 3.1299187,2.9731033 2.8733673,3.0000969 2.6642955,3.0220948 2.4934539,3.0853757 2.3521356,3.1931644 2.2388451,3.2795752 2.100717,3.4983447 2.0424245,3.6836897 c -0.050206,0.1596327 -0.050321,0.1637771 -0.050321,1.8116624 0,1.5396695 0.0028,1.6607408 0.041307,1.7855335 C 2.154032,7.6717998 2.3566031,7.8816552 2.6999592,7.971403 2.8350388,8.00671 3.1943834,8.009679 7.4777279,8.010877 10.500509,8.011722 12.150907,8.004307 12.22883,7.989529 Z M 10.868876,1.976808 c 0.07269,-0.034494 0.145581,-0.1453857 0.145581,-0.2214796 0,-0.020158 -0.01437,-0.071047 -0.03194,-0.1130874 -0.06591,-0.1577389 0.192848,-0.1468362 -3.48487,-0.1468362 -2.8154125,0 -3.3260878,0.00481 -3.3782705,0.03179 -0.1719508,0.088919 -0.1593426,0.3639902 0.020931,0.456636 0.042135,0.021654 0.7796697,0.027831 3.3539439,0.028089 2.9590176,2.971e-4 3.3076476,-0.00333 3.3746236,-0.035113 z"
     id="path815"
     inkscape:connector-curvature="0" />
  <path
     style="opacity:1;fill:#ffffff;fill-opacity:1;stroke:#000742;stroke-width:0;stroke-miterlimit:4;stroke-dasharray:none;stroke-opacity:0.0262295"
     d="M 2.7595202,7.9662599 C 2.4998884,7.9223843 2.2491601,7.7283213 2.1339114,7.4820405 2.0024482,7.20111 2.000694,7.1722344 2.0085882,5.4190899 2.0152171,3.9469503 2.0189954,3.8114915 2.0566047,3.697623 2.1903324,3.2927404 2.4537971,3.0713582 2.860397,3.0222184 2.9828831,3.0074153 4.6437379,3.0017275 7.6324787,3.0058759 l 4.5842093,0.00636 0.146065,0.050665 c 0.278487,0.096597 0.476663,0.304895 0.574787,0.6041455 0.04105,0.1251976 0.04318,0.2154185 0.04318,1.8283033 v 1.6966068 l -0.05084,0.1405593 c -0.109316,0.3022629 -0.278412,0.488538 -0.53899,0.5937563 l -0.129259,0.052193 -4.6965671,0.00311 c -2.5831121,0.00171 -4.7456067,-0.00518 -4.8055437,-0.015311 z"
     id="path817"
     inkscape:connector-curvature="0" />
  <path
     style="opacity:1;fill:#ffffff;fill-opacity:1;stroke:#000742;stroke-width:0;stroke-miterlimit:4;stroke-dasharray:none;stroke-opacity:0.0262295"
     d="M 2.7595202,7.9662599 C 2.4986216,7.9221704 2.2506508,7.7315068 2.1362448,7.4870269 2.0022052,7.2005909 2.0007087,7.1764119 2.0082522,5.4190899 2.0149501,3.8587509 2.0162313,3.8179366 2.0627975,3.6815738 2.1282354,3.4899481 2.2060266,3.3641067 2.3292724,3.2505027 2.4711912,3.1196865 2.6344623,3.0495185 2.860397,3.0222446 2.9827405,3.0074758 4.6511362,3.0017756 7.6437145,3.0059021 l 4.5954455,0.00634 0.134829,0.051251 c 0.19115,0.072659 0.336627,0.1875804 0.440085,0.3476502 0.173718,0.2687755 0.166649,0.1803598 0.166649,2.0842124 v 1.6966068 l -0.06253,0.1685371 c -0.108649,0.2928442 -0.2643,0.4593571 -0.529715,0.5666779 l -0.126848,0.051292 -4.6965671,0.00311 c -2.5831121,0.00171 -4.7456067,-0.00518 -4.8055437,-0.015311 z"
     id="path819"
     inkscape:connector-curvature="0" />
  <path
     style="opacity:1;fill:#ffffff;fill-opacity:1;stroke:#000742;stroke-width:0;stroke-miterlimit:4;stroke-dasharray:none;stroke-opacity:0.0262295"
     d="M 4.1225131,1.9458277 C 4.0230534,1.8851833 3.9838424,1.7555412 4.0350243,1.6565663 4.1130872,1.5056092 3.8321375,1.5163874 7.5150299,1.5230619 l 3.3385121,0.00605 0.05764,0.054155 c 0.07574,0.071157 0.09522,0.1786106 0.0487,0.268573 -0.07633,0.1476156 0.166768,0.1379485 -3.4667389,0.137856 -3.2300981,-8.22e-5 -3.3003214,-9.962e-4 -3.370634,-0.043869 z"
     id="path821"
     inkscape:connector-curvature="0" />
  <path
     style="opacity:1;fill:#ffffff;fill-opacity:1;stroke:#000742;stroke-width:0;stroke-miterlimit:4;stroke-dasharray:none;stroke-opacity:0.0262295"
     d="M 4.1225131,1.9458277 C 4.0230534,1.8851833 3.9838424,1.7555412 4.0350243,1.6565663 4.1129983,1.5057812 3.8325136,1.5165362 7.514922,1.5231321 l 3.338619,0.00598 0.05764,0.054155 c 0.113626,0.1067517 0.09602,0.2806115 -0.03661,0.3614754 -0.07267,0.044308 -0.114953,0.04487 -3.37692,0.04487 -3.2346378,0 -3.3048204,-9.105e-4 -3.3751359,-0.043785 z"
     id="path823"
     inkscape:connector-curvature="0" />
  <path
     style="opacity:1;fill:#ffffff;fill-opacity:1;stroke:#000742;stroke-width:0;stroke-miterlimit:4;stroke-dasharray:none;stroke-opacity:0.0262295"
     d="m 11.767256,11.95794 c -0.685045,-0.17002 -0.979105,-0.98831 -0.555322,-1.545311 0.178126,-0.234121 0.429364,-0.372681 0.715065,-0.394365 0.506373,-0.038432 0.961085,0.322925 1.048498,0.833238 0.05004,0.292146 -0.04667,0.593327 -0.263541,0.82069 -0.253968,0.266259 -0.600679,0.37113 -0.9447,0.285748 z"
     id="path825"
     inkscape:connector-curvature="0" />
  <path
     style="opacity:1;fill:#ffffff;fill-opacity:1;stroke:#000742;stroke-width:0;stroke-miterlimit:4;stroke-dasharray:none;stroke-opacity:0.0262295"
     d="m 11.75602,11.957492 c -0.443441,-0.123389 -0.741563,-0.507957 -0.741563,-0.956595 0,-0.517738 0.394061,-0.941929 0.912542,-0.982315 0.508119,-0.039578 0.960618,0.319884 1.048498,0.83292 0.08316,0.485494 -0.243921,0.975237 -0.737123,1.1037 -0.155926,0.04061 -0.341461,0.04149 -0.482354,0.0023 z"
     id="path827"
     inkscape:connector-curvature="0" />
  <path
     style="opacity:1;fill:#ffffff;fill-opacity:1;stroke:#000742;stroke-width:0;stroke-miterlimit:4;stroke-dasharray:none;stroke-opacity:0.0262295"
     d="M 2.7449027,11.953623 C 2.5764163,11.908544 2.4019661,11.799496 2.2722032,11.65814 1.920317,11.274815 1.925492,10.718129 2.2845467,10.330307 c 0.4788974,-0.5172661 1.30718,-0.3808297 1.6154558,0.266101 0.065321,0.137079 0.069603,0.161966 0.069603,0.404489 0,0.248552 -0.00294,0.264433 -0.076858,0.415725 -0.2139218,0.437821 -0.6885742,0.659879 -1.1478448,0.537001 z"
     id="path829"
     inkscape:connector-curvature="0" />
  <path
     style="opacity:1;fill:#ffffff;fill-opacity:1;stroke:#000742;stroke-width:0;stroke-miterlimit:4;stroke-dasharray:none;stroke-opacity:0.0262295"
     d="M 2.7472539,11.954087 C 2.5646937,11.904994 2.4175036,11.815097 2.2845467,11.671488 1.9931508,11.356745 1.9316695,10.941079 2.1198483,10.557985 c 0.075939,-0.154597 0.2691729,-0.355143 0.4125761,-0.42819 0.5180815,-0.2639002 1.116821,-0.05961 1.3675781,0.466613 0.065343,0.137127 0.069603,0.16191 0.069603,0.404962 0,0.247014 -0.00337,0.265748 -0.0735,0.408197 -0.2204087,0.447713 -0.686805,0.668771 -1.1488516,0.54452 z"
     id="path831"
     inkscape:connector-curvature="0" />
  <path
     style="opacity:1;fill:#ffffff;fill-opacity:1;stroke:#000742;stroke-width:0;stroke-miterlimit:4;stroke-dasharray:none;stroke-opacity:0.0262295"
     d="M 2.7472539,11.954087 C 2.5646937,11.904994 2.4175036,11.815097 2.2845467,11.671488 1.9903236,11.353692 1.9298163,10.944669 2.1198245,10.557985 c 0.075965,-0.154595 0.2692247,-0.355158 0.4125999,-0.42819 0.5180815,-0.2639002 1.116821,-0.05961 1.3675781,0.466613 0.065321,0.137079 0.069603,0.161966 0.069603,0.404489 0,0.242524 -0.00428,0.267411 -0.069603,0.404489 -0.2121243,0.445153 -0.690701,0.672952 -1.1527486,0.548701 z"
     id="path833"
     inkscape:connector-curvature="0" />
</svg>
