<?xml version="1.0" encoding="UTF-8" standalone="no"?>
<svg
   xmlns:dc="http://purl.org/dc/elements/1.1/"
   xmlns:cc="http://creativecommons.org/ns#"
   xmlns:rdf="http://www.w3.org/1999/02/22-rdf-syntax-ns#"
   xmlns:svg="http://www.w3.org/2000/svg"
   xmlns="http://www.w3.org/2000/svg"
   xmlns:sodipodi="http://sodipodi.sourceforge.net/DTD/sodipodi-0.dtd"
   xmlns:inkscape="http://www.inkscape.org/namespaces/inkscape"
   version="1.1"
   id="bus-15"
   width="15px"
   height="15px"
   viewBox="0 0 15 15"
   sodipodi:docname="bus-15-blue.svg"
   inkscape:version="0.92.4 (33fec40, 2019-01-16)">
  <metadata
     id="metadata8">
    <rdf:RDF>
      <cc:Work
         rdf:about="">
        <dc:format>image/svg+xml</dc:format>
        <dc:type
           rdf:resource="http://purl.org/dc/dcmitype/StillImage" />
        <dc:title />
      </cc:Work>
    </rdf:RDF>
  </metadata>
  <defs
     id="defs6" />
  <sodipodi:namedview
     pagecolor="#ffffff"
     bordercolor="#666666"
     borderopacity="1"
     objecttolerance="10"
     gridtolerance="10"
     guidetolerance="10"
     inkscape:pageopacity="0"
     inkscape:pageshadow="2"
     inkscape:window-width="2426"
     inkscape:window-height="1329"
     id="namedview4"
     showgrid="false"
     inkscape:zoom="44.500587"
     inkscape:cx="0.79436701"
     inkscape:cy="6.4664858"
     inkscape:window-x="134"
     inkscape:window-y="55"
     inkscape:window-maximized="1"
     inkscape:current-layer="bus-15" />
  <path
     id="path8043"
     d="M4,0C2.6364,0,1,0.7433,1,2.7461v5.4531V12c0,0,0,1,1,1v1c0,0,0,1,1,1s1-1,1-1v-1h7v1c0,0,0,1,1,1s1-1,1-1v-1  c0,0,1,0,1-1V2.7461C14,0.7006,12.764,0,11.4004,0H4z M4.25,1.5h6.5C10.8885,1.5,11,1.6115,11,1.75S10.8885,2,10.75,2h-6.5  C4.1115,2,4,1.8885,4,1.75S4.1115,1.5,4.25,1.5z M3,3h9c1,0,1,0.9668,1,0.9668V7c0,0,0,1-1,1H3C2,8,2,7,2,7V4C2,4,2,3,3,3z M3,10  c0.5523,0,1,0.4477,1,1s-0.4477,1-1,1s-1-0.4477-1-1S2.4477,10,3,10z M12,10c0.5523,0,1,0.4477,1,1s-0.4477,1-1,1s-1-0.4477-1-1  S11.4477,10,12,10z" />
  <path
     style="opacity:1;fill:#0c4842;fill-opacity:0.98360658;stroke:#000742;stroke-width:0;stroke-miterlimit:4;stroke-dasharray:none;stroke-opacity:0.0262295"
     d="m 2.6392977,14.931701 c -0.3234768,-0.102509 -0.548569,-0.394423 -0.613798,-0.796013 -0.012045,-0.07416 -0.021959,-0.363524 -0.02203,-0.64304 l -1.302e-4,-0.50821 -0.1550755,-0.0111 C 1.5495049,12.951967 1.2783522,12.771371 1.1442724,12.504462 1.0048085,12.226836 1.0131165,12.584623 1.0208651,7.1898731 1.0274225,2.6244726 1.0307155,2.2593621 1.0666498,2.1133742 1.2010356,1.5674153 1.4026229,1.1928691 1.7439483,0.8549638 2.1970997,0.40635302 2.8138263,0.13060721 3.575763,0.03593761 c 0.2601941,-0.03232877 7.982796,-0.03278969 8.248261,-4.9229e-4 0.569259,0.06925794 1.04857,0.27644654 1.397926,0.60427274 0.367478,0.34483028 0.584943,0.76444924 0.706952,1.36412954 0.0384,0.1887496 0.04057,0.4692466 0.04057,5.2454535 v 5.0460399 l -0.0849,0.171778 c -0.09129,0.184721 -0.201204,0.297968 -0.375772,0.387177 -0.135569,0.06928 -0.325985,0.124103 -0.43104,0.124103 h -0.08581 v 0.535192 c 0,0.294356 -0.01105,0.594949 -0.02455,0.667987 -0.0589,0.318601 -0.249017,0.583287 -0.511938,0.712722 -0.144726,0.07125 -0.154578,0.07284 -0.451792,0.07284 -0.282816,0 -0.312757,-0.0042 -0.432724,-0.0604 -0.180198,-0.08445 -0.27237,-0.160332 -0.365871,-0.301197 -0.163641,-0.246535 -0.175292,-0.307951 -0.189309,-0.997931 l -0.01256,-0.61797 H 7.497649 3.9920773 l -0.011995,0.629205 c -0.011193,0.587095 -0.015431,0.637837 -0.063321,0.758175 -0.1135764,0.285393 -0.3072577,0.47732 -0.5618739,0.556786 -0.1930954,0.06026 -0.5218351,0.0593 -0.7155893,-0.0021 z m 0.5980338,-2.954216 c 0.079265,-0.01868 0.1930145,-0.06058 0.2527762,-0.09311 0.1552624,-0.0845 0.344486,-0.292576 0.429722,-0.472526 0.068377,-0.144356 0.072248,-0.166435 0.072248,-0.412117 0,-0.253868 -0.00182,-0.263282 -0.082819,-0.427161 C 3.7700941,10.290991 3.5401365,10.099763 3.2497284,10.024122 2.7931119,9.9051883 2.2983651,10.13287 2.0971142,10.554554 1.7278247,11.32833 2.4051807,12.173635 3.2373315,11.977485 Z m 8.9974845,0.0011 c 0.513629,-0.133784 0.844976,-0.623352 0.761765,-1.125516 -0.09902,-0.597544 -0.674614,-0.9783445 -1.252694,-0.82875 -0.432895,0.112024 -0.751902,0.526347 -0.751902,0.976563 0,0.646375 0.625555,1.138483 1.242831,0.977703 z m -0.006,-3.9890709 C 12.619949,7.915355 12.891776,7.635047 12.980477,7.2144303 13.02881,6.9852396 13.029622,3.9864789 12.981412,3.7589745 12.914217,3.4418692 12.6961,3.165736 12.435711,3.0681247 12.364686,3.0414997 12.22062,3.0106286 12.115566,2.9995227 11.860528,2.9725608 3.1299187,2.9731033 2.8733673,3.0000969 2.6642955,3.0220948 2.4934539,3.0853757 2.3521356,3.1931644 2.2388451,3.2795752 2.100717,3.4983447 2.0424245,3.6836897 c -0.050206,0.1596327 -0.050321,0.1637771 -0.050321,1.8116624 0,1.5396695 0.0028,1.6607408 0.041307,1.7855335 C 2.154032,7.6717998 2.3566031,7.8816552 2.6999592,7.971403 2.8350388,8.00671 3.1943834,8.009679 7.4777279,8.010877 10.500509,8.011722 12.150907,8.004307 12.22883,7.989529 Z M 10.868876,1.976808 c 0.07269,-0.034494 0.145581,-0.1453857 0.145581,-0.2214796 0,-0.020158 -0.01437,-0.071047 -0.03194,-0.1130874 -0.06591,-0.1577389 0.192848,-0.1468362 -3.48487,-0.1468362 -2.8154125,0 -3.3260878,0.00481 -3.3782705,0.03179 -0.1719508,0.088919 -0.1593426,0.3639902 0.020931,0.456636 0.042135,0.021654 0.7796697,0.027831 3.3539439,0.028089 2.9590176,2.971e-4 3.3076476,-0.00333 3.3746236,-0.035113 z"
     id="path815"
     inkscape:connector-curvature="0" />
  <path
     style="opacity:1;fill:#ffffff;fill-opacity:1;stroke:#000742;stroke-width:0;stroke-miterlimit:4;stroke-dasharray:none;stroke-opacity:0.0262295"
     d="M 2.7595202,7.9662599 C 2.4998884,7.9223843 2.2491601,7.7283213 2.1339114,7.4820405 2.0024482,7.20111 2.000694,7.1722344 2.0085882,5.4190899 2.0152171,3.9469503 2.0189954,3.8114915 2.0566047,3.697623 2.1903324,3.2927404 2.4537971,3.0713582 2.860397,3.0222184 2.9828831,3.0074153 4.6437379,3.0017275 7.6324787,3.0058759 l 4.5842093,0.00636 0.146065,0.050665 c 0.278487,0.096597 0.476663,0.304895 0.574787,0.6041455 0.04105,0.1251976 0.04318,0.2154185 0.04318,1.8283033 v 1.6966068 l -0.05084,0.1405593 c -0.109316,0.3022629 -0.278412,0.488538 -0.53899,0.5937563 l -0.129259,0.052193 -4.6965671,0.00311 c -2.5831121,0.00171 -4.7456067,-0.00518 -4.8055437,-0.015311 z"
     id="path817"
     inkscape:connector-curvature="0" />
  <path
     style="opacity:1;fill:#ffffff;fill-opacity:1;stroke:#000742;stroke-width:0;stroke-miterlimit:4;stroke-dasharray:none;stroke-opacity:0.0262295"
     d="M 2.7595202,7.9662599 C 2.4986216,7.9221704 2.2506508,7.7315068 2.1362448,7.4870269 2.0022052,7.2005909 2.0007087,7.1764119 2.0082522,5.4190899 2.0149501,3.8587509 2.0162313,3.8179366 2.0627975,3.6815738 2.1282354,3.4899481 2.2060266,3.3641067 2.3292724,3.2505027 2.4711912,3.1196865 2.6344623,3.0495185 2.860397,3.0222446 2.9827405,3.0074758 4.6511362,3.0017756 7.6437145,3.0059021 l 4.5954455,0.00634 0.134829,0.051251 c 0.19115,0.072659 0.336627,0.1875804 0.440085,0.3476502 0.173718,0.2687755 0.166649,0.1803598 0.166649,2.0842124 v 1.6966068 l -0.06253,0.1685371 c -0.108649,0.2928442 -0.2643,0.4593571 -0.529715,0.5666779 l -0.126848,0.051292 -4.6965671,0.00311 c -2.5831121,0.00171 -4.7456067,-0.00518 -4.8055437,-0.015311 z"
     id="path819"
     inkscape:connector-curvature="0" />
  <path
     style="opacity:1;fill:#ffffff;fill-opacity:1;stroke:#000742;stroke-width:0;stroke-miterlimit:4;stroke-dasharray:none;stroke-opacity:0.0262295"
     d="M 4.1225131,1.9458277 C 4.0230534,1.8851833 3.9838424,1.7555412 4.0350243,1.6565663 4.1130872,1.5056092 3.8321375,1.5163874 7.5150299,1.5230619 l 3.3385121,0.00605 0.05764,0.054155 c 0.07574,0.071157 0.09522,0.1786106 0.0487,0.268573 -0.07633,0.1476156 0.166768,0.1379485 -3.4667389,0.137856 -3.2300981,-8.22e-5 -3.3003214,-9.962e-4 -3.370634,-0.043869 z"
     id="path821"
     inkscape:connector-curvature="0" />
  <path
     style="opacity:1;fill:#ffffff;fill-opacity:1;stroke:#000742;stroke-width:0;stroke-miterlimit:4;stroke-dasharray:none;stroke-opacity:0.0262295"
     d="M 4.1225131,1.9458277 C 4.0230534,1.8851833 3.9838424,1.7555412 4.0350243,1.6565663 4.1129983,1.5057812 3.8325136,1.5165362 7.514922,1.5231321 l 3.338619,0.00598 0.05764,0.054155 c 0.113626,0.1067517 0.09602,0.2806115 -0.03661,0.3614754 -0.07267,0.044308 -0.114953,0.04487 -3.37692,0.04487 -3.2346378,0 -3.3048204,-9.105e-4 -3.3751359,-0.043785 z"
     id="path823"
     inkscape:connector-curvature="0" />
  <path
     style="opacity:1;fill:#ffffff;fill-opacity:1;stroke:#000742;stroke-width:0;stroke-miterlimit:4;stroke-dasharray:none;stroke-opacity:0.0262295"
     d="m 11.767256,11.95794 c -0.685045,-0.17002 -0.979105,-0.98831 -0.555322,-1.545311 0.178126,-0.234121 0.429364,-0.372681 0.715065,-0.394365 0.506373,-0.038432 0.961085,0.322925 1.048498,0.833238 0.05004,0.292146 -0.04667,0.593327 -0.263541,0.82069 -0.253968,0.266259 -0.600679,0.37113 -0.9447,0.285748 z"
     id="path825"
     inkscape:connector-curvature="0" />
  <path
     style="opacity:1;fill:#ffffff;fill-opacity:1;stroke:#000742;stroke-width:0;stroke-miterlimit:4;stroke-dasharray:none;stroke-opacity:0.0262295"
     d="m 11.75602,11.957492 c -0.443441,-0.123389 -0.741563,-0.507957 -0.741563,-0.956595 0,-0.517738 0.394061,-0.941929 0.912542,-0.982315 0.508119,-0.039578 0.960618,0.319884 1.048498,0.83292 0.08316,0.485494 -0.243921,0.975237 -0.737123,1.1037 -0.155926,0.04061 -0.341461,0.04149 -0.482354,0.0023 z"
     id="path827"
     inkscape:connector-curvature="0" />
  <path
     style="opacity:1;fill:#ffffff;fill-opacity:1;stroke:#000742;stroke-width:0;stroke-miterlimit:4;stroke-dasharray:none;stroke-opacity:0.0262295"
     d="M 2.7449027,11.953623 C 2.5764163,11.908544 2.4019661,11.799496 2.2722032,11.65814 1.920317,11.274815 1.925492,10.718129 2.2845467,10.330307 c 0.4788974,-0.5172661 1.30718,-0.3808297 1.6154558,0.266101 0.065321,0.137079 0.069603,0.161966 0.069603,0.404489 0,0.248552 -0.00294,0.264433 -0.076858,0.415725 -0.2139218,0.437821 -0.6885742,0.659879 -1.1478448,0.537001 z"
     id="path829"
     inkscape:connector-curvature="0" />
  <path
     style="opacity:1;fill:#ffffff;fill-opacity:1;stroke:#000742;stroke-width:0;stroke-miterlimit:4;stroke-dasharray:none;stroke-opacity:0.0262295"
     d="M 2.7472539,11.954087 C 2.5646937,11.904994 2.4175036,11.815097 2.2845467,11.671488 1.9931508,11.356745 1.9316695,10.941079 2.1198483,10.557985 c 0.075939,-0.154597 0.2691729,-0.355143 0.4125761,-0.42819 0.5180815,-0.2639002 1.116821,-0.05961 1.3675781,0.466613 0.065343,0.137127 0.069603,0.16191 0.069603,0.404962 0,0.247014 -0.00337,0.265748 -0.0735,0.408197 -0.2204087,0.447713 -0.686805,0.668771 -1.1488516,0.54452 z"
     id="path831"
     inkscape:connector-curvature="0" />
  <path
     style="opacity:1;fill:#ffffff;fill-opacity:1;stroke:#000742;stroke-width:0;stroke-miterlimit:4;stroke-dasharray:none;stroke-opacity:0.0262295"
     d="M 2.7472539,11.954087 C 2.5646937,11.904994 2.4175036,11.815097 2.2845467,11.671488 1.9903236,11.353692 1.9298163,10.944669 2.1198245,10.557985 c 0.075965,-0.154595 0.2692247,-0.355158 0.4125999,-0.42819 0.5180815,-0.2639002 1.116821,-0.05961 1.3675781,0.466613 0.065321,0.137079 0.069603,0.161966 0.069603,0.404489 0,0.242524 -0.00428,0.267411 -0.069603,0.404489 -0.2121243,0.445153 -0.690701,0.672952 -1.1527486,0.548701 z"
     id="path833"
     inkscape:connector-curvature="0" />
  <path
     style="opacity:1;fill:#3737c8;fill-opacity:1;stroke:#000742;stroke-width:0;stroke-miterlimit:4;stroke-dasharray:none;stroke-opacity:0.0262295"
     d="M 2.7700884,14.953041 C 2.4238705,14.895536 2.161039,14.638368 2.0580414,14.256338 2.036036,14.174718 2.0207953,13.949782 2.0109294,13.561015 L 1.9963456,12.986342 1.830104,12.962392 C 1.408909,12.901713 1.1126086,12.612481 1.0610148,12.21165 1.0226188,11.913353 1.0147621,10.156356 1.0337952,6.1245572 L 1.0525188,2.1583174 1.1138037,1.9560729 C 1.1998409,1.6721439 1.3768502,1.3110056 1.5245352,1.1180893 1.8717736,0.66450261 2.3971143,0.3222578 2.9942566,0.16060686 3.527664,0.01620942 3.2231053,0.02499121 7.6998939,0.02492232 c 4.5057801,-6.935e-5 4.2316771,-0.0085309 4.6892051,0.14475515 0.784269,0.26275431 1.25136,0.78108671 1.496477,1.66064653 l 0.06009,0.2156353 0.0069,5.1285908 0.0069,5.1285909 -0.06929,0.13727 c -0.142953,0.283188 -0.393723,0.461986 -0.726333,0.517875 l -0.164944,0.02772 -0.01343,0.586079 c -0.01451,0.633243 -0.03385,0.751421 -0.157523,0.962447 -0.07811,0.133286 -0.262238,0.300302 -0.403653,0.366141 -0.106506,0.04959 -0.146777,0.05481 -0.423659,0.05501 -0.305268,2.25e-4 -0.306326,4.5e-5 -0.464077,-0.07888 -0.238139,-0.119136 -0.408576,-0.33423 -0.46888,-0.591735 -0.01787,-0.07629 -0.03583,-0.362178 -0.04504,-0.716787 l -0.01532,-0.58988 H 7.4940701 3.9808418 l -0.00132,0.353928 c -7.259e-4,0.194661 -0.00915,0.492662 -0.018715,0.662226 -0.016555,0.293381 -0.021401,0.316401 -0.1001611,0.47576 -0.1382627,0.279757 -0.3585256,0.441538 -0.6606222,0.485224 -0.1769263,0.02559 -0.2639106,0.02508 -0.4299371,-0.0025 z m 0.4796404,-2.975368 c 0.2798008,-0.07288 0.5075324,-0.262921 0.6666647,-0.556332 0.074452,-0.137277 0.075684,-0.144121 0.075684,-0.420444 0,-0.278385 -7.033e-4,-0.282192 -0.078651,-0.42609 -0.217322,-0.401196 -0.5634631,-0.6053825 -0.9819893,-0.5792716 -0.467084,0.029141 -0.850075,0.3808316 -0.9296545,0.8536786 -0.081717,0.485547 0.2526043,0.99573 0.7407041,1.130334 0.1438867,0.03968 0.3506354,0.03892 0.507242,-0.0019 z m 9.0286072,-0.01234 c 0.193064,-0.06504 0.299725,-0.132514 0.448439,-0.283691 0.393254,-0.399767 0.378552,-0.994462 -0.03471,-1.404002 -0.458444,-0.4543148 -1.213868,-0.3558539 -1.55101,0.202157 -0.253789,0.420051 -0.176964,0.941858 0.186734,1.268337 0.266735,0.239438 0.634848,0.323551 0.950547,0.217199 z M 12.19942,7.9896755 c 0.348175,-0.045228 0.614497,-0.272173 0.751535,-0.6404153 0.04983,-0.1339093 0.05023,-0.1454914 0.05819,-1.6966069 0.0045,-0.8768522 -0.0012,-1.6534779 -0.01309,-1.7708748 -0.01648,-0.1633428 -0.03682,-0.2400661 -0.09293,-0.3506201 -0.135306,-0.2665736 -0.281802,-0.3943636 -0.585314,-0.510576 -0.06458,-0.024727 -0.884674,-0.031323 -4.5842097,-0.03687 -2.8487037,-0.00427 -4.6086562,0.00147 -4.7859166,0.015597 -0.2523712,0.020121 -0.2965541,0.030357 -0.4426005,0.1025368 -0.190397,0.094099 -0.2817155,0.1915238 -0.402417,0.4293245 -0.084325,0.1661331 -0.085711,0.1730662 -0.1019853,0.5101292 -0.020964,0.4341837 -0.021149,2.406642 -2.712e-4,2.8817977 0.015516,0.3531221 0.01747,0.3637896 0.097475,0.5322577 0.044903,0.094553 0.1241856,0.2180688 0.1761842,0.2744804 0.1256349,0.136298 0.3358258,0.2388742 0.5201473,0.2538398 0.077932,0.00633 0.1459082,0.015328 0.151058,0.020001 0.0215,0.01951 9.1019348,0.00577 9.2541448,-0.014001 z m -1.261884,-6.072598 c 0.08198,-0.089463 0.09536,-0.1598148 0.05333,-0.2803923 -0.04795,-0.1375623 0.155139,-0.1294276 -3.414567,-0.1367668 -1.7982909,-0.0037 -3.3138664,-3.591e-4 -3.3679457,0.00742 -0.059226,0.00852 -0.1195438,0.035358 -0.1516833,0.067498 -0.1157271,0.1157272 -0.034987,0.3974458 0.1208031,0.4215047 0.033985,0.00525 1.551595,0.00845 3.3724661,0.00711 l 3.3106748,-0.00243 z"
     id="path826"
     inkscape:connector-curvature="0" />
  <path
     style="opacity:1;fill:#b7b7c8;fill-opacity:1;stroke:#000742;stroke-width:0;stroke-miterlimit:4;stroke-dasharray:none;stroke-opacity:0.0262295"
     d="M 2.7595206,7.9662853 C 2.3636462,7.8992943 2.0756224,7.558292 2.0239426,7.0954071 2.009845,6.9691371 2.0038181,6.3001848 2.0082691,5.3557323 2.0153054,3.8627455 2.0167863,3.8174376 2.0629927,3.6815738 2.1280755,3.490206 2.2058929,3.3642303 2.3292728,3.2505027 2.4674003,3.1231811 2.6311089,3.0511667 2.8480345,3.0223023 2.9689949,3.0062072 4.4978373,3.0008201 7.6324791,3.0054438 l 4.6066809,0.00679 0.130309,0.049246 c 0.189329,0.071551 0.328583,0.1802479 0.437037,0.3411386 0.181798,0.2696961 0.174217,0.1781445 0.174217,2.1039645 v 1.7078427 l -0.05066,0.1330155 c -0.107999,0.2835698 -0.250046,0.443405 -0.498831,0.561298 l -0.14713,0.069721 -4.707803,0.00313 c -2.5892917,0.00172 -4.7568424,-0.00517 -4.8167794,-0.015311 z"
     id="path828"
     inkscape:connector-curvature="0" />
  <path
     style="opacity:1;fill:#b7b7c8;fill-opacity:1;stroke:#000742;stroke-width:0;stroke-miterlimit:4;stroke-dasharray:none;stroke-opacity:0.0262295"
     d="M 2.7178854,11.94626 C 2.5336969,11.887368 2.4073576,11.806541 2.2776405,11.66461 1.9905228,11.350458 1.9300737,10.930031 2.1179616,10.554034 c 0.07498,-0.150049 0.2769015,-0.354079 0.425699,-0.430145 0.508498,-0.2599473 1.1050172,-0.05209 1.3560507,0.472519 0.065692,0.137284 0.069895,0.161603 0.069895,0.404489 0,0.242524 -0.00428,0.267411 -0.069603,0.404489 -0.216404,0.454134 -0.7252468,0.686954 -1.1821179,0.540874 z"
     id="path830"
     inkscape:connector-curvature="0" />
  <path
     style="opacity:1;fill:#b7b7c8;fill-opacity:1;stroke:#000742;stroke-width:0;stroke-miterlimit:4;stroke-dasharray:none;stroke-opacity:0.0262295"
     d="m 11.770051,11.964684 c -0.214359,-0.05033 -0.42686,-0.195226 -0.568831,-0.387855 -0.314622,-0.426885 -0.2215,-1.042069 0.207027,-1.367679 0.185201,-0.140722 0.322117,-0.183198 0.594961,-0.184576 0.225974,-0.0011 0.243079,0.0022 0.404489,0.07982 0.504013,0.24227 0.715153,0.811757 0.486298,1.311642 -0.07004,0.152987 -0.268215,0.365845 -0.414977,0.445723 -0.209609,0.114083 -0.488816,0.154617 -0.708967,0.102924 z"
     id="path832"
     inkscape:connector-curvature="0" />
  <path
     style="opacity:1;fill:#b7b7c8;fill-opacity:1;stroke:#000742;stroke-width:0;stroke-miterlimit:4;stroke-dasharray:none;stroke-opacity:0.0262295"
     d="M 4.1224315,1.9459038 C 4.0727585,1.9155293 4.0431577,1.8745245 4.0266507,1.8132222 3.997542,1.7051206 4.0210363,1.6324364 4.1069258,1.5648757 l 0.062026,-0.048789 3.345951,0.00651 3.3459502,0.00651 0.0681,0.07622 c 0.05866,0.065658 0.06642,0.08871 0.05601,0.1663479 -0.0074,0.055265 -0.03467,0.1127051 -0.07045,0.1484959 l -0.05837,0.058368 -3.3309075,0.00566 c -3.2717779,0.00556 -3.3321841,0.00488 -3.4027986,-0.0383 z"
     id="path834"
     inkscape:connector-curvature="0" />
  <path
     style="opacity:1;fill:#ffffff;fill-opacity:1;stroke:#000742;stroke-width:0;stroke-miterlimit:4;stroke-dasharray:none;stroke-opacity:0.0262295"
     d="M 7.463942,7.9672295 2.688724,7.9559937 2.5598316,7.8955862 C 2.3168191,7.7816945 2.115302,7.5118189 2.0512101,7.2144305 2.0208077,7.073362 2.0179235,3.9362945 2.0480559,3.7835241 c 0.011402,-0.057809 0.035826,-0.141235 0.054276,-0.1853908 0.01845,-0.044156 0.029103,-0.080283 0.023675,-0.080283 -0.013966,0 0.050801,-0.079207 0.1756966,-0.2148706 0.059045,-0.064136 0.1551113,-0.1406215 0.2134803,-0.1699682 0.058369,-0.029347 0.1111814,-0.058414 0.1173611,-0.064593 0.00618,-0.00618 0.03146,-0.015182 0.056179,-0.020004 0.1209982,-0.023607 2.8532123,-0.036543 6.0336283,-0.028567 3.4215388,0.00858 3.5429148,0.010306 3.6485778,0.051876 0.146119,0.057486 0.29227,0.1604288 0.368009,0.2592104 0.03411,0.044482 0.07971,0.09968 0.101337,0.1226617 0.02163,0.022981 0.03174,0.041939 0.02247,0.042129 -0.0093,1.888e-4 -0.004,0.00852 0.01176,0.018505 0.07822,0.049639 0.09411,0.4011174 0.09542,2.1094165 l 0.0012,1.6236412 -0.08902,0.1865207 c -0.06743,0.1412833 -0.122137,0.2176109 -0.225559,0.3147103 -0.07509,0.070504 -0.136536,0.1226455 -0.136536,0.1158697 0,-0.00678 -0.04803,0.012612 -0.10674,0.043084 -0.05871,0.030472 -0.121908,0.058912 -0.140447,0.0632 -0.01854,0.00429 -2.182556,0.00274 -4.8089257,-0.00344 z"
     id="path835"
     inkscape:connector-curvature="0" />
  <path
     style="opacity:1;fill:#ffffff;fill-opacity:1;stroke:#000742;stroke-width:0;stroke-miterlimit:4;stroke-dasharray:none;stroke-opacity:0.0262295"
     d="M 4.8184956,1.9697707 C 4.0523304,1.9543185 4.0710726,1.9589584 4.0301739,1.7746137 4.0113082,1.6895795 4.0150402,1.6773857 4.0824416,1.6038381 l 0.072584,-0.079203 1.8623205,-0.010578 c 1.0242764,-0.00582 1.6600761,-0.00441 1.4128883,0.00313 -0.2477084,0.00756 0.3927645,0.015661 1.4269475,0.018059 1.0320089,0.00239 1.9143011,0.00452 1.9606481,0.00473 0.05641,2.511e-4 0.08427,0.010607 0.08427,0.031331 0,0.017026 0.01517,0.043545 0.03371,0.058931 0.04823,0.040028 0.04158,0.172959 -0.01307,0.261389 l -0.04678,0.075685 H 8.5892923 c -1.2576684,0 -2.4677826,0.00364 -2.689143,0.00808 -0.2213605,0.00444 -0.7081046,0.00192 -1.0816537,-0.00562 z"
     id="path837"
     inkscape:connector-curvature="0" />
  <path
     style="opacity:1;fill:#ffffff;fill-opacity:1;stroke:#000742;stroke-width:0;stroke-miterlimit:4;stroke-dasharray:none;stroke-opacity:0.0262295"
     d="m 11.785871,11.960963 c -0.0059,-0.0096 -0.02265,-0.01563 -0.03716,-0.0134 -0.03405,0.0052 -0.189293,-0.06342 -0.264884,-0.117119 -0.03229,-0.02294 -0.06263,-0.03948 -0.06742,-0.03675 -0.0048,0.0027 -0.05543,-0.04308 -0.112543,-0.101786 -0.05711,-0.05871 -0.09996,-0.106741 -0.09522,-0.106741 0.0047,0 -0.01577,-0.03864 -0.04558,-0.08587 -0.135373,-0.214446 -0.174499,-0.546317 -0.0932,-0.790527 0.103471,-0.3108 0.41186,-0.616446 0.65245,-0.646646 0.03708,-0.0047 0.06993,-0.01527 0.073,-0.0236 0.0031,-0.0083 0.114304,-0.0098 0.247188,-0.0034 0.220148,0.01071 0.254132,0.0185 0.382621,0.0877 0.177509,0.0956 0.426695,0.334325 0.450668,0.431753 0.0041,0.01658 0.01419,0.03531 0.02247,0.0416 0.0083,0.0063 0.01558,0.02156 0.01622,0.03392 0.003,0.05822 0.03911,0.191008 0.05189,0.191008 0.0079,0 0.01435,0.0809 0.01435,0.179773 0,0.09887 -0.0065,0.179773 -0.01435,0.179773 -0.01278,0 -0.04886,0.132787 -0.05189,0.191009 -6.44e-4,0.01236 -0.0079,0.02762 -0.01622,0.03392 -0.0083,0.0063 -0.01839,0.02652 -0.02247,0.04494 -0.01,0.04497 -0.384899,0.425176 -0.406291,0.412003 -0.0093,-0.0057 -0.01685,9.27e-4 -0.01685,0.01474 0,0.01382 -0.01011,0.01887 -0.02247,0.01124 -0.01236,-0.0076 -0.02247,-0.0026 -0.02247,0.01124 0,0.01382 -0.0084,0.01994 -0.01864,0.01361 -0.01025,-0.0063 -0.0658,0.0027 -0.12344,0.02002 -0.116314,0.035 -0.462872,0.05492 -0.479751,0.02757 z"
     id="path839"
     inkscape:connector-curvature="0" />
  <path
     style="opacity:1;fill:#ffffff;fill-opacity:1;stroke:#000742;stroke-width:0;stroke-miterlimit:4;stroke-dasharray:none;stroke-opacity:0.0262295"
     d="m 2.8010821,11.956336 c -0.2001799,-0.04402 -0.2013369,-0.04434 -0.2134803,-0.05776 -0.00618,-0.0068 -0.047504,-0.03444 -0.091831,-0.06136 -0.1838294,-0.111621 -0.4474041,-0.474403 -0.4474701,-0.615894 -9.8e-6,-0.0209 -0.00783,-0.04283 -0.017388,-0.04874 -0.014424,-0.0089 -0.00848,-0.128525 0.023331,-0.469438 0.00202,-0.02163 0.00958,-0.03933 0.016811,-0.03933 0.00723,0 0.026236,-0.03621 0.04224,-0.08047 0.039684,-0.109744 0.2892089,-0.369164 0.4274568,-0.444408 0.1727507,-0.09402 0.4016106,-0.134491 0.5928149,-0.104825 0.2093997,0.03249 0.3661976,0.110755 0.5431369,0.271104 0.080982,0.07339 0.1461077,0.136064 0.1447232,0.139276 -0.00565,0.0131 0.078867,0.174378 0.09138,0.174378 0.023928,0 0.031834,0.09488 0.031834,0.382017 0,0.287141 -0.00791,0.382018 -0.031834,0.382018 -0.00744,0 -0.029414,0.03331 -0.048831,0.07403 -0.069291,0.145304 -0.2598493,0.32554 -0.4301371,0.406836 -0.088469,0.04224 -0.1810774,0.0837 -0.2057961,0.09213 -0.086676,0.02959 -0.2934062,0.02979 -0.4269607,4.2e-4 z"
     id="path841"
     inkscape:connector-curvature="0" />
</svg>
