<?xml version="1.0" encoding="UTF-8" standalone="no"?>
<svg
   xmlns:dc="http://purl.org/dc/elements/1.1/"
   xmlns:cc="http://creativecommons.org/ns#"
   xmlns:rdf="http://www.w3.org/1999/02/22-rdf-syntax-ns#"
   xmlns:svg="http://www.w3.org/2000/svg"
   xmlns="http://www.w3.org/2000/svg"
   xmlns:sodipodi="http://sodipodi.sourceforge.net/DTD/sodipodi-0.dtd"
   xmlns:inkscape="http://www.inkscape.org/namespaces/inkscape"
   version="1.1"
   id="bus-11"
   width="11px"
   height="11px"
   viewBox="0 0 11 11"
   sodipodi:docname="bus-11-onando.svg"
   inkscape:version="0.92.4 (33fec40, 2019-01-16)">
  <metadata
     id="metadata8">
    <rdf:RDF>
      <cc:Work
         rdf:about="">
        <dc:format>image/svg+xml</dc:format>
        <dc:type
           rdf:resource="http://purl.org/dc/dcmitype/StillImage" />
        <dc:title></dc:title>
      </cc:Work>
    </rdf:RDF>
  </metadata>
  <defs
     id="defs6" />
  <sodipodi:namedview
     pagecolor="#ffffff"
     bordercolor="#666666"
     borderopacity="1"
     objecttolerance="10"
     gridtolerance="10"
     guidetolerance="10"
     inkscape:pageopacity="0"
     inkscape:pageshadow="2"
     inkscape:window-width="2426"
     inkscape:window-height="1329"
     id="namedview4"
     showgrid="false"
     inkscape:zoom="85.818182"
     inkscape:cx="7.0481028"
     inkscape:cy="5.096046"
     inkscape:window-x="134"
     inkscape:window-y="55"
     inkscape:window-maximized="1"
     inkscape:current-layer="bus-11" />
  <path
     id="path8043"
     d="M3,0C2,0,1,0.5312,1,2v4v3.5c0,0,0,0.5,0.5,0.5L2,10.0156V10.5
	c0,0,0,0.5,0.5,0.5H3c0,0,0.5,0,0.5-0.5v-0.4844L7.5,10v0.5c0,0,0,0.5,0.5,0.5h0.5C9,11,9,10.5,9,10.5v-0.4844L9.5,10
	c0,0,0.5,0,0.5-0.5V6V2c0-1.5-1-2-2-2H3z M3.75,1h3.5C7.3885,1,7.5,1.1115,7.5,1.25S7.3885,1.5,7.25,1.5h-3.5
	C3.6115,1.5,3.5,1.3885,3.5,1.25S3.6115,1,3.75,1z M3,2h5c1,0,1,1,1,1v2c0,0,0,1-1,1H3C2,6,2,5,2,5V3C2,3,2,2,3,2z M2.75,7.5
	c0.4142,0,0.75,0.3358,0.75,0.75C3.5,8.6642,3.1642,9,2.75,9S2,8.6642,2,8.25C2,7.8358,2.3358,7.5,2.75,7.5z M8.25,7.5
	C8.6642,7.5,9,7.8358,9,8.25C9,8.6642,8.6642,9,8.25,9C7.8358,9,7.5,8.6642,7.5,8.25C7.5,7.8358,7.8358,7.5,8.25,7.5z" />
  <path
     style="opacity:0.23900003;fill:#0c4842;fill-opacity:0;stroke:#cf4842;stroke-width:0;stroke-miterlimit:4;stroke-dasharray:none;stroke-opacity:0.01967211"
     d="m 2.3500802,10.975104 c -0.1575699,-0.04234 -0.2639717,-0.151969 -0.3211628,-0.330896 -0.016397,-0.0513 -0.021548,-0.119899 -0.025813,-0.34375 -0.00366,-0.191991 -0.00951,-0.282344 -0.018671,-0.288222 -0.00734,-0.0047 -0.086754,-0.0088 -0.1764783,-0.0092 C 1.5145088,10.001964 1.3593558,9.9865604 1.2791424,9.9505628 1.1544899,9.894622 1.0520004,9.7603456 1.0214582,9.6129582 1.0132258,9.5732312 1.01052,8.2998287 1.0129533,5.6103099 L 1.0165219,1.6659243 1.041649,1.5372266 C 1.088874,1.2953469 1.1382391,1.1450946 1.2300575,0.96376812 1.5053686,0.42007367 2.0326657,0.09066288 2.7443056,0.01779353 2.9078141,0.00105086 8.0894077,5.9399853e-4 8.2593153,0.01730727 c 0.3773036,0.03711416 0.7168658,0.15099145 0.9888421,0.3316231 0.1215404,0.0807204 0.3401988,0.30245325 0.424254,0.43021919 0.1754091,0.26662604 0.2778361,0.58670924 0.3098712,0.96834254 0.00895,0.1066099 0.011685,1.297474 0.00924,4.0201271 l -0.00348,3.8686441 -0.026607,0.065803 C 9.9107052,9.8275234 9.8006641,9.9219084 9.6524212,9.967113 9.5882752,9.986673 9.5293848,9.992523 9.3436289,9.997787 9.2173872,10.001367 9.0865695,10.007067 9.0529227,10.01047 l -0.061176,0.0062 v 0.279681 c 0,0.268358 -0.00119,0.283239 -0.029504,0.367572 -0.050125,0.14932 -0.1358309,0.247136 -0.260885,0.297746 -0.062931,0.02547 -0.077331,0.02631 -0.4495475,0.02631 -0.3744398,0 -0.386278,-7.05e-4 -0.4509724,-0.02684 C 7.6759734,10.910662 7.581211,10.801944 7.5318666,10.65253 7.5110093,10.589375 7.507312,10.54269 7.5029419,10.287294 l -0.00501,-0.2928249 -1.6272977,0.00462 c -0.8950137,0.00254 -1.7960967,0.00775 -2.0024065,0.011581 l -0.3751087,0.007 -0.00376,0.310376 c -0.00353,0.291582 -0.00538,0.314398 -0.030443,0.376813 -0.051705,0.128739 -0.1766603,0.229956 -0.3347076,0.271122 -0.096283,0.02508 -0.6800363,0.02445 -0.7741274,-8.38e-4 z M 2.9316804,8.9823719 C 3.1950224,8.9175475 3.4124381,8.7005851 3.4804206,8.4347757 3.566739,8.097274 3.4016248,7.7315811 3.095166,7.5815178 2.9668956,7.518708 2.8816075,7.4979825 2.7522754,7.498194 2.5371167,7.4985459 2.3770219,7.5640303 2.2263027,7.7133357 2.066576,7.8715641 2.0002215,8.0290277 2.0002215,8.2498415 c 0,0.2210846 0.062869,0.3718722 0.2211331,0.5303749 0.1087369,0.1089009 0.2139201,0.1706905 0.3441576,0.2021746 0.095724,0.023141 0.2721214,0.023131 0.3661682,-2.33e-5 z m 5.5,0 C 8.6950224,8.9175475 8.9124381,8.7005851 8.9804206,8.4347757 9.066739,8.097274 8.9016249,7.7315811 8.595166,7.5815178 8.4668956,7.518708 8.3816075,7.4979825 8.2522754,7.498194 8.0371167,7.4985459 7.8770219,7.5640303 7.7263027,7.7133357 7.5665759,7.8715641 7.5002215,8.0290277 7.5002215,8.2498415 c 0,0.2210846 0.062869,0.3718722 0.2211331,0.5303749 0.1087369,0.1089009 0.2139201,0.1706905 0.3441576,0.2021746 0.095724,0.023141 0.2721214,0.023131 0.3661682,-2.33e-5 z M 8.288092,5.9747772 C 8.6479045,5.87799 8.8570335,5.656723 8.9717974,5.2513892 8.9969753,5.1624638 8.9972255,5.1519823 9.000684,4.0409447 9.0041046,2.9421212 9.0036955,2.9178603 8.9797691,2.8004516 8.8902122,2.360988 8.6246073,2.0842409 8.2264495,2.0155302 8.135581,1.9998489 7.805082,1.9980906 5.4550228,2.0007868 l -2.6682547,0.00306 -0.09322,0.026462 C 2.4931846,2.0871868 2.3170745,2.2054043 2.2047429,2.3584306 2.1423731,2.4433952 2.0746196,2.5867079 2.0387215,2.7096 l -0.03211,0.109926 -0.00403,1.1302966 c -0.00429,1.2027406 -0.00425,1.2036755 0.052621,1.3866526 0.1160024,0.3732255 0.3815008,0.599905 0.7701796,0.6575704 0.036441,0.00541 1.2591859,0.00901 2.7172102,0.008 L 8.1935477,6.000209 Z M 7.3715261,1.4736574 C 7.4519816,1.4285144 7.4927296,1.3614753 7.4981633,1.265312 7.503186,1.1764216 7.4820279,1.1198943 7.4226339,1.0635234 7.3465874,0.99134742 7.4762102,0.99590313 5.4986463,0.99590313 H 3.6944159 L 3.6325237,1.0267453 C 3.52557,1.0800426 3.4744513,1.1965569 3.504925,1.317579 c 0.018047,0.071672 0.1008893,0.1586915 0.1681066,0.176583 0.031267,0.00832 0.6209502,0.011653 1.8462577,0.010427 l 1.8003178,-0.0018 z"
     id="path815"
     inkscape:connector-curvature="0" />
  <path
     style="opacity:1;fill:#0c4842;fill-opacity:0.99016392;stroke:#cf4842;stroke-width:0;stroke-miterlimit:4;stroke-dasharray:none;stroke-opacity:0.01967211"
     d="m 2.3500802,10.975104 c -0.1575699,-0.04234 -0.2639717,-0.151969 -0.3211628,-0.330896 -0.016397,-0.0513 -0.021548,-0.119899 -0.025813,-0.34375 -0.00366,-0.191991 -0.00951,-0.282344 -0.018671,-0.288222 -0.00734,-0.0047 -0.086754,-0.0088 -0.1764783,-0.0092 C 1.5145088,10.001964 1.3593558,9.9865604 1.2791424,9.9505628 1.1544899,9.894622 1.0520004,9.7603456 1.0214582,9.6129582 1.0132258,9.5732312 1.01052,8.2998287 1.0129533,5.6103099 L 1.0165219,1.6659243 1.041649,1.5372266 C 1.088874,1.2953469 1.1382391,1.1450946 1.2300575,0.96376812 1.5053686,0.42007367 2.0326657,0.09066288 2.7443056,0.01779353 2.9078141,0.00105086 8.0894077,5.9399853e-4 8.2593153,0.01730727 c 0.3773036,0.03711416 0.7168658,0.15099145 0.9888421,0.3316231 0.1215404,0.0807204 0.3401988,0.30245325 0.424254,0.43021919 0.1754091,0.26662604 0.2778361,0.58670924 0.3098712,0.96834254 0.00895,0.1066099 0.011685,1.297474 0.00924,4.0201271 l -0.00348,3.8686441 -0.026607,0.065803 C 9.9107052,9.8275234 9.8006641,9.9219084 9.6524212,9.967113 9.5882752,9.986673 9.5293848,9.992523 9.3436289,9.997787 9.2173872,10.001367 9.0865695,10.007067 9.0529227,10.01047 l -0.061176,0.0062 v 0.279681 c 0,0.268358 -0.00119,0.283239 -0.029504,0.367572 -0.050125,0.14932 -0.1358309,0.247136 -0.260885,0.297746 -0.062931,0.02547 -0.077331,0.02631 -0.4495475,0.02631 -0.3744398,0 -0.386278,-7.05e-4 -0.4509724,-0.02684 C 7.6759734,10.910662 7.581211,10.801944 7.5318666,10.65253 7.5110093,10.589375 7.507312,10.54269 7.5029419,10.287294 l -0.00501,-0.2928249 -1.6272977,0.00462 c -0.8950137,0.00254 -1.7960967,0.00775 -2.0024065,0.011581 l -0.3751087,0.007 -0.00376,0.310376 c -0.00353,0.291582 -0.00538,0.314398 -0.030443,0.376813 -0.051705,0.128739 -0.1766603,0.229956 -0.3347076,0.271122 -0.096283,0.02508 -0.6800363,0.02445 -0.7741274,-8.38e-4 z M 2.9316804,8.9823719 C 3.1950224,8.9175475 3.4124381,8.7005851 3.4804206,8.4347757 3.566739,8.097274 3.4016248,7.7315811 3.095166,7.5815178 2.9668956,7.518708 2.8816075,7.4979825 2.7522754,7.498194 2.5371167,7.4985459 2.3770219,7.5640303 2.2263027,7.7133357 2.066576,7.8715641 2.0002215,8.0290277 2.0002215,8.2498415 c 0,0.2210846 0.062869,0.3718722 0.2211331,0.5303749 0.1087369,0.1089009 0.2139201,0.1706905 0.3441576,0.2021746 0.095724,0.023141 0.2721214,0.023131 0.3661682,-2.33e-5 z m 5.5,0 C 8.6950224,8.9175475 8.9124381,8.7005851 8.9804206,8.4347757 9.066739,8.097274 8.9016249,7.7315811 8.595166,7.5815178 8.4668956,7.518708 8.3816075,7.4979825 8.2522754,7.498194 8.0371167,7.4985459 7.8770219,7.5640303 7.7263027,7.7133357 7.5665759,7.8715641 7.5002215,8.0290277 7.5002215,8.2498415 c 0,0.2210846 0.062869,0.3718722 0.2211331,0.5303749 0.1087369,0.1089009 0.2139201,0.1706905 0.3441576,0.2021746 0.095724,0.023141 0.2721214,0.023131 0.3661682,-2.33e-5 z M 8.288092,5.9747772 C 8.6479045,5.87799 8.8570335,5.656723 8.9717974,5.2513892 8.9969753,5.1624638 8.9972255,5.1519823 9.000684,4.0409447 9.0041046,2.9421212 9.0036955,2.9178603 8.9797691,2.8004516 8.8902122,2.360988 8.6246073,2.0842409 8.2264495,2.0155302 8.135581,1.9998489 7.805082,1.9980906 5.4550228,2.0007868 l -2.6682547,0.00306 -0.09322,0.026462 C 2.4931846,2.0871868 2.3170745,2.2054043 2.2047429,2.3584306 2.1423731,2.4433952 2.0746196,2.5867079 2.0387215,2.7096 l -0.03211,0.109926 -0.00403,1.1302966 c -0.00429,1.2027406 -0.00425,1.2036755 0.052621,1.3866526 0.1160024,0.3732255 0.3815008,0.599905 0.7701796,0.6575704 0.036441,0.00541 1.2591859,0.00901 2.7172102,0.008 L 8.1935477,6.000209 Z M 7.3715261,1.4736574 C 7.4519816,1.4285144 7.4927296,1.3614753 7.4981633,1.265312 7.503186,1.1764216 7.4820279,1.1198943 7.4226339,1.0635234 7.3465874,0.99134742 7.4762102,0.99590313 5.4986463,0.99590313 H 3.6944159 L 3.6325237,1.0267453 C 3.52557,1.0800426 3.4744513,1.1965569 3.504925,1.317579 c 0.018047,0.071672 0.1008893,0.1586915 0.1681066,0.176583 0.031267,0.00832 0.6209502,0.011653 1.8462577,0.010427 l 1.8003178,-0.0018 z"
     id="path817"
     inkscape:connector-curvature="0" />
  <path
     style="opacity:1;fill:#ffffff;fill-opacity:1;stroke:#cf4842;stroke-width:0;stroke-miterlimit:4;stroke-dasharray:none;stroke-opacity:0.01967211"
     d="M 2.8226986,5.9820456 C 2.4617086,5.9288806 2.2055491,5.7214577 2.0831558,5.3832072 2.008729,5.1775188 2.0107277,5.2189401 2.0145511,3.9614752 l 0.00347,-1.1419492 0.026847,-0.09322 C 2.148122,2.367794 2.359151,2.143292 2.6877215,2.0424127 l 0.087394,-0.026832 2.6833342,-0.00312 c 2.6294936,-0.00306 2.6855866,-0.00266 2.7955937,0.019809 0.3762949,0.076872 0.6283711,0.3476374 0.713768,0.7666878 0.023132,0.1135098 0.023936,0.1538303 0.023936,1.2009352 0,1.1689297 1.759e-4,1.1651415 -0.06255,1.3495215 -0.1109288,0.32607 -0.3210588,0.5268827 -0.6424293,0.6139399 l -0.09322,0.025253 -2.6509534,0.0018 C 4.08457,5.9913912 2.8606169,5.9876301 2.8226986,5.9820456 Z"
     id="path819"
     inkscape:connector-curvature="0" />
  <path
     style="opacity:1;fill:#ffffff;fill-opacity:1;stroke:#cf4842;stroke-width:0;stroke-miterlimit:4;stroke-dasharray:none;stroke-opacity:0.01967211"
     d="M 3.6870906,1.4853599 C 3.5588849,1.4467566 3.4805401,1.3114343 3.5150457,1.1881926 c 0.00793,-0.028316 0.032203,-0.072265 0.053944,-0.097665 0.077354,-0.090371 -0.076587,-0.084026 1.9502997,-0.080393 l 1.8119703,0.00325 0.04511,0.028042 c 0.070151,0.043608 0.112199,0.1192496 0.112199,0.2018381 0,0.037405 -0.00706,0.084882 -0.015697,0.1055047 C 7.4515387,1.3997274 7.3717679,1.469408 7.317519,1.4844721 7.263711,1.4994141 3.7366299,1.5002791 3.6870909,1.4853625 Z"
     id="path821"
     inkscape:connector-curvature="0" />
  <path
     style="opacity:1;fill:#ffffff;fill-opacity:1;stroke:#cf4842;stroke-width:0;stroke-miterlimit:4;stroke-dasharray:none;stroke-opacity:0.01967211"
     d="M 3.6730351,1.4795754 C 3.6027784,1.4545476 3.5704588,1.4258398 3.5354439,1.3573605 3.485817,1.2603038 3.4960622,1.1757271 3.5675654,1.0921917 3.6465938,0.99986483 3.488715,1.0064961 5.5212013,1.0101347 l 1.8138824,0.00325 0.050426,0.035442 c 0.07019,0.049334 0.1026285,0.1108468 0.102868,0.1950697 1.049e-4,0.037057 -0.00687,0.08425 -0.015506,0.1048729 C 7.4515387,1.3997273 7.3717679,1.4694079 7.317519,1.484472 7.286995,1.492952 6.7143165,1.496695 5.4959845,1.496388 4.0006218,1.4960123 3.711691,1.493348 3.6730354,1.479577 Z"
     id="path823"
     inkscape:connector-curvature="0" />
  <path
     style="opacity:1;fill:#ffffff;fill-opacity:1;stroke:#cf4842;stroke-width:0;stroke-miterlimit:4;stroke-dasharray:none;stroke-opacity:0.01967211"
     d="M 8.0688611,8.9714991 C 7.8147825,8.9098897 7.5982152,8.694781 7.5293775,8.4356492 7.5054862,8.3457125 7.5053194,8.1549433 7.5290538,8.0651741 7.5988348,7.8012451 7.8171746,7.5875043 8.0800135,7.5258195 c 0.1160758,-0.027241 0.3095893,-0.017159 0.4134888,0.021544 0.16776,0.062491 0.3116868,0.1802603 0.3965934,0.3245161 0.1213019,0.2060916 0.1344018,0.4802333 0.033108,0.6928542 -0.096483,0.202523 -0.3018035,0.367763 -0.5117442,0.4118472 -0.082888,0.017405 -0.260741,0.014767 -0.3425983,-0.00508 z"
     id="path825"
     inkscape:connector-curvature="0" />
  <path
     style="opacity:1;fill:#ffffff;fill-opacity:1;stroke:#cf4842;stroke-width:0;stroke-miterlimit:4;stroke-dasharray:none;stroke-opacity:0.01967211"
     d="M 8.0519133,8.9673625 C 7.4043601,8.7820472 7.3132454,7.9015431 7.9095094,7.5912145 c 0.1258589,-0.065504 0.2198629,-0.085058 0.3772587,-0.078475 0.098725,0.00413 0.1462285,0.012085 0.2067342,0.034623 0.2239217,0.083411 0.3956702,0.2589207 0.4648434,0.4750229 0.034198,0.106836 0.04171,0.2761325 0.017152,0.3865167 -0.060792,0.2732491 -0.281305,0.5007239 -0.5458666,0.5631006 -0.099851,0.023542 -0.2872837,0.021239 -0.3777178,-0.00464 z"
     id="path827"
     inkscape:connector-curvature="0" />
  <path
     style="opacity:1;fill:#ffffff;fill-opacity:1;stroke:#cf4842;stroke-width:0;stroke-miterlimit:4;stroke-dasharray:none;stroke-opacity:0.01967211"
     d="M 2.5688611,8.9714991 C 2.3147825,8.9098897 2.0982152,8.694781 2.0293775,8.4356492 2.0054861,8.3457125 2.0053194,8.1549433 2.0290538,8.0651741 2.0988348,7.8012451 2.3171746,7.5875043 2.5800135,7.5258195 c 0.1160758,-0.027241 0.3095893,-0.017159 0.4134888,0.021544 0.16776,0.062491 0.3116868,0.1802603 0.3965934,0.3245161 0.1213019,0.2060916 0.1344018,0.4802333 0.033108,0.6928542 -0.096483,0.202523 -0.3018035,0.367763 -0.5117442,0.4118472 -0.082888,0.017405 -0.260741,0.014767 -0.3425983,-0.00508 z"
     id="path829"
     inkscape:connector-curvature="0" />
  <path
     style="opacity:1;fill:#ffffff;fill-opacity:1;stroke:#cf4842;stroke-width:0;stroke-miterlimit:4;stroke-dasharray:none;stroke-opacity:0.01967211"
     d="M 2.5519133,8.9673625 C 1.9043601,8.7820472 1.8132454,7.9015431 2.4095093,7.5912145 c 0.125859,-0.065504 0.2198629,-0.085058 0.3772588,-0.078475 0.098725,0.00413 0.1462285,0.012085 0.2067342,0.034623 0.2239217,0.083411 0.3956702,0.2589207 0.4648434,0.4750229 0.034198,0.106836 0.04171,0.2761325 0.017152,0.3865167 -0.060792,0.2732491 -0.281305,0.5007239 -0.5458666,0.5631006 -0.099851,0.023542 -0.2872837,0.021239 -0.3777178,-0.00464 z"
     id="path831"
     inkscape:connector-curvature="0" />
  <path
     style="opacity:1;fill:#ffffff;fill-opacity:1;stroke:#cf4842;stroke-width:0;stroke-miterlimit:4;stroke-dasharray:none;stroke-opacity:0.01967211"
     d="M 2.5653698,8.972215 C 2.2642612,8.8905663 2.0460207,8.6388441 2.0130455,8.3351549 1.9721923,7.9589127 2.2157388,7.6113116 2.5801238,7.5257939 c 0.1159619,-0.027215 0.3095275,-0.017115 0.4133785,0.021569 0.2239217,0.083411 0.3956702,0.2589207 0.4648434,0.4750229 0.034198,0.106836 0.04171,0.2761325 0.017152,0.3865167 -0.06096,0.2740032 -0.2805748,0.5005517 -0.5458666,0.5631006 -0.090232,0.021274 -0.2861651,0.021388 -0.3642613,2.119e-4 z"
     id="path833"
     inkscape:connector-curvature="0" />
  <path
     style="opacity:1;fill:#ffffff;fill-opacity:1;stroke:#cf4842;stroke-width:0;stroke-miterlimit:4;stroke-dasharray:none;stroke-opacity:0.01967211"
     d="M 2.5595435,8.9711052 C 2.3084297,8.9048549 2.0955086,8.6901058 2.0290447,8.4360514 c -0.023896,-0.09134 -0.023896,-0.2815417 0,-0.3728813 0.067438,-0.2577782 0.2795618,-0.4687611 0.5380071,-0.535114 0.082798,-0.021257 0.2548837,-0.024095 0.3444076,-0.00568 0.088078,0.018118 0.2362252,0.092702 0.3199524,0.1610772 0.1208791,0.098715 0.2206591,0.270592 0.2508786,0.4321527 0.019313,0.1032493 0.00567,0.2839528 -0.028356,0.3756961 C 3.364542,8.7323001 3.1636898,8.9168337 2.931096,8.9716618 2.8375369,8.993716 2.6441491,8.9934263 2.5595435,8.9711052 Z"
     id="path835"
     inkscape:connector-curvature="0" />
  <path
     style="opacity:1;fill:#ffffff;fill-opacity:1;stroke:#cf4842;stroke-width:0;stroke-miterlimit:4;stroke-dasharray:none;stroke-opacity:0.01967211"
     d="M 2.5595435,8.971821 C 2.308454,8.9039582 2.0941562,8.6875929 2.0288935,8.4360514 2.0051638,8.3445901 2.005241,8.1541583 2.0290447,8.0631701 2.0967223,7.8044768 2.3074521,7.5948963 2.5670518,7.5280974 2.6570878,7.5049294 2.8332859,7.5045024 2.9296314,7.527218 3.1914073,7.588938 3.4052898,7.8058006 3.4752383,8.0804272 3.5034273,8.1911015 3.4933963,8.3856971 3.4540583,8.4913026 3.3712202,8.7136849 3.2043665,8.8809297 2.9906876,8.9557593 2.8930344,8.989957 2.6589163,8.9986788 2.5595435,8.971821 Z"
     id="path837"
     inkscape:connector-curvature="0" />
  <path
     style="opacity:1;fill:#ffffff;fill-opacity:1;stroke:#cf4842;stroke-width:0;stroke-miterlimit:4;stroke-dasharray:none;stroke-opacity:0.01967211"
     d="M 2.5595435,8.9719082 C 2.3153344,8.9055727 2.1112306,8.7059476 2.0354926,8.4593565 2.00037,8.3450028 2.0003509,8.1543363 2.0354505,8.039865 2.1033858,7.818306 2.2684624,7.6395847 2.483802,7.5544542 c 0.080617,-0.031871 0.1113372,-0.037542 0.2272245,-0.041953 0.1589122,-0.00605 0.2517718,0.011925 0.3704766,0.071703 0.198995,0.1002123 0.3372499,0.2744543 0.3937352,0.4962224 0.028189,0.1106743 0.018158,0.3052699 -0.02118,0.4108754 -0.08116,0.2178781 -0.237481,0.3779121 -0.449428,0.4601026 -0.066754,0.025886 -0.099924,0.030813 -0.2295144,0.034086 -0.10842,0.00274 -0.169702,-0.00112 -0.2155724,-0.013582 z"
     id="path839"
     inkscape:connector-curvature="0" />
  <path
     style="opacity:1;fill:#ffffff;fill-opacity:1;stroke:#cf4842;stroke-width:0;stroke-miterlimit:4;stroke-dasharray:none;stroke-opacity:0.01967211"
     d="M 2.5620719,8.9733066 C 2.3665795,8.9239159 2.1744732,8.7660708 2.0854747,8.5817082 2.0240206,8.4544045 2.0099995,8.3927104 2.0099995,8.2496108 c 0,-0.1430266 0.014008,-0.2047226 0.075401,-0.3320975 0.088786,-0.1842066 0.2798717,-0.3397277 0.4795038,-0.3902594 0.088725,-0.022458 0.2702635,-0.022307 0.3661912,3.058e-4 0.196924,0.04642 0.3895524,0.1997334 0.4780331,0.3804679 0.061448,0.125517 0.082618,0.21203 0.082618,0.3376315 0,0.132289 -0.015833,0.2044042 -0.069942,0.3185703 -0.085138,0.1796341 -0.2219956,0.3092411 -0.4019857,0.3806894 -0.085198,0.03382 -0.1062574,0.037303 -0.2447034,0.040473 -0.098875,0.00226 -0.1728622,-0.00193 -0.2130436,-0.012085 z"
     id="path841"
     inkscape:connector-curvature="0" />
</svg>
