<?xml version="1.0" encoding="UTF-8" standalone="no"?>
<svg
   xmlns:dc="http://purl.org/dc/elements/1.1/"
   xmlns:cc="http://creativecommons.org/ns#"
   xmlns:rdf="http://www.w3.org/1999/02/22-rdf-syntax-ns#"
   xmlns:svg="http://www.w3.org/2000/svg"
   xmlns="http://www.w3.org/2000/svg"
   xmlns:sodipodi="http://sodipodi.sourceforge.net/DTD/sodipodi-0.dtd"
   xmlns:inkscape="http://www.inkscape.org/namespaces/inkscape"
   version="1.1"
   id="bus-11"
   width="11px"
   height="11px"
   viewBox="0 0 11 11"
   sodipodi:docname="bus-11-filled.svg"
   inkscape:version="0.92.4 (33fec40, 2019-01-16)">
  <metadata
     id="metadata4204">
    <rdf:RDF>
      <cc:Work
         rdf:about="">
        <dc:format>image/svg+xml</dc:format>
        <dc:type
           rdf:resource="http://purl.org/dc/dcmitype/StillImage" />
        <dc:title></dc:title>
      </cc:Work>
    </rdf:RDF>
  </metadata>
  <defs
     id="defs4202" />
  <sodipodi:namedview
     pagecolor="#ffffff"
     bordercolor="#666666"
     borderopacity="1"
     objecttolerance="10"
     gridtolerance="10"
     guidetolerance="10"
     inkscape:pageopacity="0"
     inkscape:pageshadow="2"
     inkscape:window-width="2426"
     inkscape:window-height="1329"
     id="namedview4200"
     showgrid="false"
     inkscape:zoom="85.818182"
     inkscape:cx="8.2022271"
     inkscape:cy="5.3072917"
     inkscape:window-x="134"
     inkscape:window-y="55"
     inkscape:window-maximized="1"
     inkscape:current-layer="bus-11" />
  <path
     id="path8043"
     d="M3,0C2,0,1,0.5312,1,2v4v3.5c0,0,0,0.5,0.5,0.5L2,10.0156V10.5
	c0,0,0,0.5,0.5,0.5H3c0,0,0.5,0,0.5-0.5v-0.4844L7.5,10v0.5c0,0,0,0.5,0.5,0.5h0.5C9,11,9,10.5,9,10.5v-0.4844L9.5,10
	c0,0,0.5,0,0.5-0.5V6V2c0-1.5-1-2-2-2H3z M3.75,1h3.5C7.3885,1,7.5,1.1115,7.5,1.25S7.3885,1.5,7.25,1.5h-3.5
	C3.6115,1.5,3.5,1.3885,3.5,1.25S3.6115,1,3.75,1z M3,2h5c1,0,1,1,1,1v2c0,0,0,1-1,1H3C2,6,2,5,2,5V3C2,3,2,2,3,2z M2.75,7.5
	c0.4142,0,0.75,0.3358,0.75,0.75C3.5,8.6642,3.1642,9,2.75,9S2,8.6642,2,8.25C2,7.8358,2.3358,7.5,2.75,7.5z M8.25,7.5
	C8.6642,7.5,9,7.8358,9,8.25C9,8.6642,8.6642,9,8.25,9C7.8358,9,7.5,8.6642,7.5,8.25C7.5,7.8358,7.8358,7.5,8.25,7.5z"
     style="fill:#08ffff;fill-opacity:0;opacity:0" />
  <path
     style="opacity:1;fill:#ffffff;fill-opacity:1;stroke:#000742;stroke-width:0;stroke-miterlimit:4;stroke-dasharray:none;stroke-opacity:0.0262295"
     d="M 2.8222482,5.9851066 C 2.3836675,5.923422 2.0906508,5.6123893 2.0176666,5.1310558 1.9926454,4.9660398 1.9930155,3.0333471 2.0181002,2.8669262 2.0397657,2.7231894 2.0924755,2.5638636 2.1557108,2.450971 2.2139892,2.346928 2.3602825,2.1955239 2.4581922,2.1379224 2.5396756,2.0899847 2.6912691,2.036837 2.7931169,2.0204999 c 0.050956,-0.00817 0.9394352,-0.012128 2.7150424,-0.012084 2.5681975,6.34e-5 2.6422578,6.752e-4 2.7490626,0.022712 0.3461558,0.071423 0.5859707,0.3083114 0.6963496,0.6878515 l 0.032194,0.1106992 0.00364,1.1265774 c 0.00357,1.106214 0.00319,1.1287511 -0.02085,1.2468221 C 8.9245781,5.4190186 8.8326395,5.6027712 8.7044148,5.7309959 8.589964,5.8454467 8.4737869,5.9113577 8.2989432,5.9610327 l -0.09322,0.026485 -2.6742585,0.00125 C 4.0606222,5.9894591 2.8414749,5.9878103 2.8222482,5.9851066 Z"
     id="path4927"
     inkscape:connector-curvature="0" />
  <path
     style="opacity:1;fill:#d94550;fill-opacity:0.78360662;stroke:#000742;stroke-width:0;stroke-miterlimit:4;stroke-dasharray:none;stroke-opacity:0.0262295"
     d="M 3.6494788,1.4737308 C 3.5609864,1.4335296 3.5037654,1.3410908 3.5042429,1.2391066 3.5046679,1.148306 3.5855878,1.0437592 3.6756038,1.017712 3.7066688,1.008722 4.2478343,1.006016 5.527549,1.008442 l 1.8080548,0.00344 0.050526,0.035475 c 0.070658,0.04961 0.1052925,0.1166586 0.1052925,0.2038328 0,0.1105286 -0.060594,0.1956653 -0.1642918,0.2308379 -0.029246,0.00992 -0.5094292,0.013368 -1.8352754,0.013179 -1.7116741,-2.44e-4 -1.7978507,-0.00125 -1.8423763,-0.021476 z"
     id="path4929"
     inkscape:connector-curvature="0" />
  <path
     style="opacity:1;fill:#d94550;fill-opacity:0.78360662;stroke:#000742;stroke-width:0;stroke-miterlimit:4;stroke-dasharray:none;stroke-opacity:0.0262295"
     d="M 8.1765915,8.9922728 C 8.0756739,8.977538 8.0076851,8.9572116 7.9215047,8.9160101 7.843642,8.8787853 7.8043476,8.8499144 7.7285772,8.7742596 7.5731412,8.619061 7.5083901,8.4645087 7.5081423,8.2481109 7.5077939,7.9439107 7.6880873,7.6759802 7.972672,7.557782 8.1188091,7.497086 8.3481985,7.491897 8.4940248,7.545987 c 0.2234961,0.0829 0.3952886,0.2583601 0.4649735,0.4748991 0.034076,0.105887 0.042277,0.2958031 0.017116,0.3963321 C 8.9489408,8.5257834 8.8749544,8.6687497 8.8061145,8.7457135 8.6516446,8.9184123 8.385269,9.0227411 8.1765915,8.9922728 Z"
     id="path4931"
     inkscape:connector-curvature="0" />
  <path
     style="opacity:1;fill:#d94550;fill-opacity:0.78360662;stroke:#000742;stroke-width:0;stroke-miterlimit:4;stroke-dasharray:none;stroke-opacity:0.0262295"
     d="M 2.6765915,8.9922728 C 2.5756739,8.977538 2.5076851,8.9572116 2.4215047,8.9160101 2.343642,8.8787853 2.3043476,8.8499144 2.2285772,8.7742596 2.0731412,8.619061 2.0083901,8.4645087 2.0081423,8.2481109 2.0077939,7.9439107 2.1880872,7.6759802 2.472672,7.557782 2.6188091,7.497086 2.8481984,7.491897 2.9940248,7.545987 c 0.2234961,0.0829 0.3952886,0.2583601 0.4649735,0.4748991 0.034076,0.105887 0.042277,0.2958031 0.017116,0.3963321 C 3.4489408,8.5257834 3.3749544,8.6687497 3.3061145,8.7457135 3.1516446,8.9184123 2.8852689,9.0227411 2.6765915,8.9922728 Z"
     id="path4933"
     inkscape:connector-curvature="0" />
  <path
     style="opacity:0;fill:#ffffff;fill-opacity:1;stroke:#000742;stroke-width:0;stroke-miterlimit:4;stroke-dasharray:none;stroke-opacity:0.0262295"
     d="M 4.0553347,1.4851985 C 3.6771044,1.4783468 3.6554451,1.4767732 3.6248651,1.4539247 3.5366052,1.3879792 3.4946909,1.2852369 3.5182245,1.1925219 3.5325416,1.1361167 3.600655,1.0548778 3.6514104,1.0336709 3.6832056,1.020386 3.9963353,1.0177083 5.5181131,1.0177083 H 7.346612 l 0.058476,0.05535 C 7.535401,1.1964035 7.5091672,1.3935488 7.353264,1.4625122 7.306267,1.4833012 7.24018,1.4844592 5.8788325,1.4883452 5.0949568,1.4905852 4.2743826,1.4891669 4.0553344,1.4851952 Z"
     id="path4935"
     inkscape:connector-curvature="0" />
  <path
     style="opacity:1;fill:#ffffff;fill-opacity:1;stroke:#000742;stroke-width:0;stroke-miterlimit:4;stroke-dasharray:none;stroke-opacity:0.0262295"
     d="M 4.0553347,1.4851985 C 3.6771044,1.4783468 3.6554451,1.4767732 3.6248651,1.4539247 3.5366052,1.3879792 3.4946909,1.2852369 3.5182245,1.1925219 3.5325416,1.1361167 3.600655,1.0548778 3.6514104,1.0336709 3.6832056,1.020386 3.9963353,1.0177083 5.5181131,1.0177083 H 7.346612 l 0.058476,0.05535 C 7.535401,1.1964035 7.5091672,1.3935488 7.353264,1.4625122 7.306267,1.4833012 7.24018,1.4844592 5.8788325,1.4883452 5.0949568,1.4905852 4.2743826,1.4891669 4.0553344,1.4851952 Z"
     id="path4937"
     inkscape:connector-curvature="0" />
  <path
     style="opacity:1;fill:#ffffff;fill-opacity:1;stroke:#000742;stroke-width:0;stroke-miterlimit:4;stroke-dasharray:none;stroke-opacity:0.0262295"
     d="M 8.0891974,8.970783 C 7.9223347,8.9257313 7.8161986,8.8619419 7.7037869,8.7391458 7.5664275,8.5890975 7.5046026,8.4157446 7.5159912,8.2125793 7.5269293,8.0174512 7.5942279,7.8675447 7.7330609,7.7290598 7.8827978,7.5796985 8.0313047,7.5187182 8.2465067,7.5182273 c 0.1473136,-3.361e-4 0.2127648,0.013204 0.3207162,0.066349 0.203096,0.099985 0.35691,0.2891597 0.4002235,0.492233 0.01962,0.091986 0.016608,0.2894598 -0.00556,0.3643666 C 8.9005975,8.6483078 8.7631772,8.8168314 8.584036,8.9045513 8.5297773,8.93112 8.4541312,8.9607756 8.4159335,8.9704527 8.331179,8.9919245 8.1681117,8.9920894 8.0891974,8.9707836 Z"
     id="path4939"
     inkscape:connector-curvature="0" />
  <path
     style="opacity:1;fill:#ffffff;fill-opacity:1;stroke:#000742;stroke-width:0;stroke-miterlimit:4;stroke-dasharray:none;stroke-opacity:0.0262295"
     d="M 2.5891974,8.970783 C 2.4223347,8.9257313 2.3161986,8.8619419 2.2037868,8.7391458 2.0664275,8.5890975 2.0046026,8.4157446 2.0159912,8.2125793 2.0269293,8.0174512 2.0942279,7.8675447 2.2330609,7.7290598 2.3827978,7.5796985 2.5313047,7.5187182 2.7465067,7.5182273 c 0.1473136,-3.361e-4 0.2127648,0.013204 0.3207162,0.066349 0.203096,0.099985 0.35691,0.2891597 0.4002235,0.492233 0.01962,0.091986 0.016608,0.2894598 -0.00556,0.3643666 C 3.4005975,8.6483078 3.2631772,8.8168314 3.084036,8.9045513 3.0297773,8.93112 2.9541312,8.9607756 2.9159335,8.9704527 2.831179,8.9919245 2.6681117,8.9920894 2.5891974,8.9707836 Z"
     id="path4941"
     inkscape:connector-curvature="0" />
</svg>
